<svg width="1920" height="1080" viewBox="0 0 1920 1080" fill="none" xmlns="http://www.w3.org/2000/svg">
<path d="M1920 0H0.199951V1080H1920V0Z" fill="#01B4FD"/>
<path opacity="0.1" d="M1920 0H0.199951V1080H1920V0Z" fill="url(#paint0_radial)"/>
<path opacity="0.1" d="M1920 -0.299988H0.199951V225.2H1920V-0.299988Z" fill="#E5EDEF"/>
<path opacity="0.1" d="M1920 238.5H0V258H1920V238.5Z" fill="#E5EDEF"/>
<path opacity="0.1" d="M1920 277.2H0V286.9H1920V277.2Z" fill="#E5EDEF"/>
<path d="M674.1 614H575.1C568.5 614 563.1 608.6 563.1 602V367C563.1 360.4 568.5 355 575.1 355H674.1C680.7 355 686.1 360.4 686.1 367V602C686.1 608.6 680.7 614 674.1 614Z" fill="#06A7FF"/>
<path d="M1218 743.5H1075.1C1047.9 743.5 1025.7 721.3 1025.7 694.1V533.9C1025.7 506.7 1047.9 484.5 1075.1 484.5H1218C1245.2 484.5 1267.4 506.7 1267.4 533.9V694.1C1267.4 721.3 1245.2 743.5 1218 743.5Z" fill="#06A7FF"/>
<path opacity="0.9" d="M409.3 791.2H296.8V392.5C296.8 361.4 322 336.3 353 336.3C384.1 336.3 409.2 361.5 409.2 392.5V791.2H409.3Z" fill="#06A7FF"/>
<path d="M360.6 778.1H248.1V572.3C248.1 541.2 273.3 516.1 304.3 516.1C335.4 516.1 360.5 541.3 360.5 572.3V778.1H360.6Z" fill="#0CACFE"/>
<path opacity="0.9" d="M1490.5 745H1378V539.2C1378 508.1 1403.2 483 1434.2 483C1465.3 483 1490.4 508.2 1490.4 539.2V745H1490.5Z" fill="#06A7FF"/>
<path d="M1138.2 647.1H1025.7V441.3C1025.7 410.2 1050.9 385.1 1081.9 385.1C1113 385.1 1138.1 410.3 1138.1 441.3V647.1H1138.2Z" fill="#06A7FF"/>
<path opacity="0.5" d="M359.6 419.5H296.8V404.3H359.6C363.8 404.3 367.2 407.7 367.2 411.9C367.2 416.1 363.8 419.5 359.6 419.5Z" fill="#26BDF9"/>
<path opacity="0.5" d="M359.6 448.6H296.8V433.4H359.6C363.8 433.4 367.2 436.8 367.2 441C367.2 445.2 363.8 448.6 359.6 448.6Z" fill="#26BDF9"/>
<path opacity="0.5" d="M359.6 477.7H296.8V462.5H359.6C363.8 462.5 367.2 465.9 367.2 470.1C367.2 474.3 363.8 477.7 359.6 477.7Z" fill="#26BDF9"/>
<path opacity="0.5" d="M310.9 641.3H248.1V626.1H310.9C315.1 626.1 318.5 629.5 318.5 633.7C318.5 637.9 315.1 641.3 310.9 641.3Z" fill="#26BDF9"/>
<path opacity="0.5" d="M342.9 419.5H332.8C328.6 419.5 325.2 416.1 325.2 411.9C325.2 407.7 328.6 404.3 332.8 404.3H342.9C347.1 404.3 350.5 407.7 350.5 411.9C350.5 416.1 347.1 419.5 342.9 419.5Z" fill="#1AC6FF"/>
<path opacity="0.5" d="M342.9 448.6H332.8C328.6 448.6 325.2 445.2 325.2 441C325.2 436.8 328.6 433.4 332.8 433.4H342.9C347.1 433.4 350.5 436.8 350.5 441C350.5 445.2 347.1 448.6 342.9 448.6Z" fill="#1AC6FF"/>
<path opacity="0.5" d="M342.9 477.7H332.8C328.6 477.7 325.2 474.3 325.2 470.1C325.2 465.9 328.6 462.5 332.8 462.5H342.9C347.1 462.5 350.5 465.9 350.5 470.1C350.5 474.3 347.1 477.7 342.9 477.7Z" fill="#1AC6FF"/>
<path opacity="0.5" d="M292.9 641.3H282.8C278.6 641.3 275.2 637.9 275.2 633.7C275.2 629.5 278.6 626.1 282.8 626.1H292.9C297.1 626.1 300.5 629.5 300.5 633.7C300.6 637.9 297.1 641.3 292.9 641.3Z" fill="#1AC6FF"/>
<path d="M402.9 694.4V266.8C402.9 257.1 410.8 249.2 420.5 249.2H565.4C575.1 249.2 583 257.1 583 266.8V451.6H698V383.6H766V234.6C766 234.6 934.4 213.6 934.4 234.6C934.4 255.6 934.4 388.4 934.4 388.4H968.4V305.8H987.9C1008.4 305.8 1025 322.4 1025 342.9V365.7H1059V543.8H1337.5V526H1326C1324.5 526 1323.4 524.8 1323.4 523.4V510.9C1323.4 509.4 1324.6 508.3 1326 508.3H1337.5V502.6C1337.5 487 1350.2 474.3 1365.8 474.3C1381.4 474.3 1394.1 487 1394.1 502.6V508H1406C1407.5 508 1408.6 509.2 1408.6 510.6V523.5C1408.6 525 1407.4 526.1 1406 526.1H1395.7V540.5H1457.2V618.2H1513.9V478.3C1513.9 460.9 1528 446.7 1545.5 446.7C1562.9 446.7 1577.1 460.8 1577.1 478.3V768.9H413H402.8V694.4H402.9Z" fill="#0CACFE"/>
<path d="M1654.7 768.9H1542.2V553.3C1542.2 522.2 1567.4 497.1 1598.4 497.1C1629.5 497.1 1654.6 522.3 1654.6 553.3V768.9H1654.7Z" fill="#0CACFE"/>
<path d="M1581.1 645.3H1458.4V768.9H1581.1V645.3Z" fill="#0CACFE"/>
<path opacity="0.25" d="M935.3 769.1H780.8V570.4C780.8 559.8 789.4 551.2 800 551.2H916.2C926.8 551.2 935.4 559.8 935.4 570.4V769.1H935.3Z" fill="#11BCFD"/>
<path opacity="0.25" d="M1434.3 769.1H1343.2V705.7C1343.2 680.6 1363.6 660.2 1388.7 660.2C1413.8 660.2 1434.2 680.6 1434.2 705.7V769.1H1434.3Z" fill="#11BCFD"/>
<path d="M538.3 768.9H447.2V705.5C447.2 680.4 467.6 660 492.7 660C517.8 660 538.2 680.4 538.2 705.5V768.9H538.3Z" fill="#11BCFD"/>
<path d="M1353.5 769.1H1304.4V684.7C1304.4 671.1 1315.4 660.2 1328.9 660.2C1342.5 660.2 1353.4 671.2 1353.4 684.7V769.1H1353.5Z" fill="#11BCFD"/>
<path d="M1316.5 769.1H1267.4V727.2C1267.4 713.6 1278.4 702.7 1291.9 702.7C1305.5 702.7 1316.4 713.7 1316.4 727.2V769.1H1316.5Z" fill="#11BCFD"/>
<path opacity="0.25" d="M591 769.1H499.9V648.9C499.9 623.8 520.3 603.4 545.4 603.4C570.5 603.4 590.9 623.8 590.9 648.9V769.1H591Z" fill="#11BCFD"/>
<path opacity="0.25" d="M903.6 551.5H812.5V488.1C812.5 463 832.9 442.6 858 442.6C883.1 442.6 903.5 463 903.5 488.1V551.5H903.6Z" fill="#11BCFD"/>
<path d="M805.6 681.9V769.1H790.4V681.9C790.4 677.7 793.8 674.3 798 674.3C802.2 674.3 805.6 677.7 805.6 681.9Z" fill="#0CACFE"/>
<path d="M838 681.9V769.1H822.8V681.9C822.8 677.7 826.2 674.3 830.4 674.3C834.6 674.3 838 677.7 838 681.9Z" fill="#0CACFE"/>
<path d="M873.2 681.9V769.1H858V681.9C858 677.7 861.4 674.3 865.6 674.3C869.8 674.3 873.2 677.7 873.2 681.9Z" fill="#0CACFE"/>
<path d="M908.8 681.9V769.1H893.6V681.9C893.6 677.7 897 674.3 901.2 674.3C905.4 674.3 908.8 677.7 908.8 681.9Z" fill="#0CACFE"/>
<path d="M805.6 636.6V657.1C805.6 661.3 802.2 664.7 798 664.7C793.8 664.7 790.4 661.3 790.4 657.1V636.6C790.4 632.4 793.8 629 798 629C802.2 629 805.6 632.4 805.6 636.6Z" fill="#0CACFE"/>
<path d="M838 636.6V657.1C838 661.3 834.6 664.7 830.4 664.7C826.2 664.7 822.8 661.3 822.8 657.1V636.6C822.8 632.4 826.2 629 830.4 629C834.6 629 838 632.4 838 636.6Z" fill="#0CACFE"/>
<path d="M873.2 636.6V657.1C873.2 661.3 869.8 664.7 865.6 664.7C861.4 664.7 858 661.3 858 657.1V636.6C858 632.4 861.4 629 865.6 629C869.8 629 873.2 632.4 873.2 636.6Z" fill="#0CACFE"/>
<path d="M908.8 636.6V657.1C908.8 661.3 905.4 664.7 901.2 664.7C897 664.7 893.6 661.3 893.6 657.1V636.6C893.6 632.4 897 629 901.2 629C905.4 629 908.8 632.4 908.8 636.6Z" fill="#0CACFE"/>
<path opacity="0.25" d="M1648.7 558.9V579.4C1648.7 583.6 1645.3 587 1641.1 587C1636.9 587 1633.5 583.6 1633.5 579.4V558.9C1633.5 554.7 1636.9 551.3 1641.1 551.3C1645.3 551.2 1648.7 554.7 1648.7 558.9Z" fill="#11BCFD"/>
<path opacity="0.25" d="M1626.1 558.9V579.4C1626.1 583.6 1622.7 587 1618.5 587C1614.3 587 1610.9 583.6 1610.9 579.4V558.9C1610.9 554.7 1614.3 551.3 1618.5 551.3C1622.7 551.2 1626.1 554.7 1626.1 558.9Z" fill="#11BCFD"/>
<path opacity="0.5" d="M508.1 313H402.9V297.8H508.1C512.3 297.8 515.7 301.2 515.7 305.4C515.7 309.6 512.3 313 508.1 313Z" fill="#26BDF9"/>
<path opacity="0.5" d="M796 320.6H766V305.4H796C800.2 305.4 803.6 308.8 803.6 313C803.6 317.2 800.2 320.6 796 320.6Z" fill="#26BDF9"/>
<path opacity="0.5" d="M796 342.5H766V327.3H796C800.2 327.3 803.6 330.7 803.6 334.9C803.6 339.1 800.2 342.5 796 342.5Z" fill="#26BDF9"/>
<path d="M1404.3 712.4H1434.2V727.6H1404.3C1400.1 727.6 1396.7 724.2 1396.7 720C1396.7 715.8 1400.1 712.4 1404.3 712.4Z" fill="#0CACFE"/>
<path opacity="0.25" d="M477 313H466.9C462.7 313 459.3 309.6 459.3 305.4C459.3 301.2 462.7 297.8 466.9 297.8H477C481.2 297.8 484.6 301.2 484.6 305.4C484.6 309.5 481.2 313 477 313Z" fill="#1AC6FF"/>
<path opacity="0.5" d="M1349.1 684.8V694.9C1349.1 697 1347.4 698.7 1345.3 698.7C1343.2 698.7 1341.5 697 1341.5 694.9V684.8C1341.5 682.7 1343.2 681 1345.3 681C1347.4 680.9 1349.1 682.7 1349.1 684.8Z" fill="#2CCDFF"/>
<path opacity="0.5" d="M1332.8 684.8V694.9C1332.8 697 1331.1 698.7 1329 698.7C1326.9 698.7 1325.2 697 1325.2 694.9V684.8C1325.2 682.7 1326.9 681 1329 681C1331.1 680.9 1332.8 682.7 1332.8 684.8Z" fill="#2CCDFF"/>
<path opacity="0.5" d="M1316.5 684.8V694.9C1316.5 697 1314.8 698.7 1312.7 698.7C1310.6 698.7 1308.9 697 1308.9 694.9V684.8C1308.9 682.7 1310.6 681 1312.7 681C1314.8 680.9 1316.5 682.7 1316.5 684.8Z" fill="#2CCDFF"/>
<path d="M1087.1 551.2H996.2C985 551.2 975.9 542.1 975.9 530.9C975.9 519.7 985 510.6 996.2 510.6H1087.1C1098.3 510.6 1107.4 519.7 1107.4 530.9C1107.4 542.2 1098.4 551.2 1087.1 551.2Z" fill="#0CACFE"/>
<path d="M1920 768.9H0.199951V1080H1920V768.9Z" fill="#00A3FB"/>
<path d="M1920 871.9H0.199951V1080H1920V871.9Z" fill="#009AF9"/>
<path d="M1920 837.4H0.199951V851.1H1920V837.4Z" fill="#009AF9"/>
<path d="M1774.8 810.4H177.1C161.6 810.4 148.9 797.7 148.9 782.2C148.9 766.7 161.6 754 177.1 754H1774.9C1790.4 754 1803.1 766.7 1803.1 782.2C1803 797.7 1790.3 810.4 1774.8 810.4Z" fill="#00A3FB"/>
<path d="M315.1 802.2H257C230.4 802.2 208.8 780.6 208.8 754C208.8 727.4 230.4 705.8 257 705.8H315.1C341.7 705.8 363.3 727.4 363.3 754C363.3 780.6 341.7 802.2 315.1 802.2Z" fill="#00A3FB"/>
<path d="M1626.7 787.5H1463.4C1456.8 787.5 1451.4 782.1 1451.4 775.5V757C1451.4 750.4 1456.8 745 1463.4 745H1626.7C1633.3 745 1638.7 750.4 1638.7 757V775.5C1638.7 782.1 1633.3 787.5 1626.7 787.5Z" fill="#00A3FB"/>
<path opacity="0.1" d="M1854.8 391H1840.8H1838.2C1828.4 391 1831.7 378.9 1831.7 378.9C1834.5 373.9 1836.1 368.2 1836.1 362.1C1836.1 343.3 1821 328.1 1802.4 328.1C1786.9 328.1 1773.8 338.7 1769.9 353.1C1766.6 351.2 1762.7 350.1 1758.7 350.1C1748.9 350.1 1740.5 356.4 1737.3 365.2C1735.7 364.7 1733.9 364.4 1732.1 364.4C1722.5 364.4 1714.7 372.3 1714.7 381.9C1714.7 382.1 1714.7 382.2 1714.7 382.4C1714.7 384.3 1714.3 391 1705.9 391H1703.3H1662.8C1660 391 1657.7 393.3 1657.7 396.1C1657.7 398.9 1660 401.2 1662.8 401.2H1854.8C1857.6 401.2 1859.9 398.9 1859.9 396.1C1859.9 393.2 1857.6 391 1854.8 391ZM1717.1 390.9C1717.2 390.9 1717.2 390.9 1717.1 390.9V390.9Z" fill="#E5EDEF"/>
<path opacity="0.1" d="M1646.4 401.1H1621.6C1619.8 401.1 1618.2 399.6 1618.2 397.7V394.2C1618.2 392.4 1619.7 390.8 1621.6 390.8H1646.4C1648.2 390.8 1649.8 392.3 1649.8 394.2V397.7C1649.8 399.6 1648.3 401.1 1646.4 401.1Z" fill="#E5EDEF"/>
<path opacity="0.1" d="M1605.3 401.1H1601.8C1600 401.1 1598.4 399.6 1598.4 397.7V394.2C1598.4 392.4 1599.9 390.8 1601.8 390.8H1605.3C1607.1 390.8 1608.7 392.3 1608.7 394.2V397.7C1608.6 399.6 1607.1 401.1 1605.3 401.1Z" fill="#E5EDEF"/>
<defs>
<radialGradient id="paint0_radial" cx="0" cy="0" r="1" gradientUnits="userSpaceOnUse" gradientTransform="translate(960.083 540) scale(778.794)">
<stop stop-color="#01B4FD"/>
<stop offset="1" stop-color="#009AF9"/>
</radialGradient>
</defs>
</svg>
