<svg width="74" height="50" viewBox="0 0 74 50" fill="none" xmlns="http://www.w3.org/2000/svg">
<path d="M61.3381 46.3589L8.03329 39.8561C5.15463 39.5049 3.06293 36.8319 3.41411 33.9533L6.61101 7.74756C6.96218 4.8689 9.63513 2.7772 12.5138 3.12837L65.8186 9.63116C68.6973 9.98234 70.789 12.6553 70.4378 15.5339L67.2409 41.7397C66.989 44.6304 64.2168 46.7101 61.3381 46.3589Z" fill="#A3BCD3"/>
<path d="M61.217 47.3515L7.91216 40.8487C4.43791 40.4249 1.9976 37.3064 2.42143 33.8321L5.61833 7.62643C6.04216 4.15219 9.16061 1.71187 12.6349 2.1357L65.9397 8.63849C69.4139 9.06232 71.8542 12.1808 71.4304 15.655L68.2335 41.8607C67.9211 45.2478 64.6912 47.7753 61.217 47.3515ZM12.3927 4.12098C10.0103 3.83035 7.89424 5.48628 7.60361 7.86862L4.40671 34.0743C4.11608 36.4567 5.77201 38.5728 8.15435 38.8634L61.4592 45.3662C63.8415 45.6568 65.9576 44.0009 66.2482 41.6185L69.4451 15.4128C69.7358 13.0305 68.0798 10.9144 65.6975 10.6238L12.3927 4.12098Z" fill="#5F5F57"/>
<path d="M14.9923 19.1463C16.8563 19.3737 18.5517 18.047 18.7791 16.183C19.0064 14.3191 17.6797 12.6237 15.8158 12.3963C13.9518 12.169 12.2565 13.4956 12.0291 15.3596C11.8017 17.2235 13.1284 18.9189 14.9923 19.1463Z" fill="#FF4324"/>
<path d="M14.9318 19.6426C12.7479 19.3762 11.2784 17.3836 11.5327 15.299C11.787 13.2145 13.7918 11.6457 15.8763 11.9C17.9608 12.1543 19.5297 14.159 19.2754 16.2436C19.0211 18.3281 16.917 19.8848 14.9318 19.6426ZM15.7552 12.8926C14.167 12.6989 12.7191 13.8319 12.5254 15.4201C12.3316 17.0083 13.4646 18.4562 15.0529 18.65C16.6411 18.8437 18.089 17.7107 18.2827 16.1225C18.4765 14.5342 17.2442 13.0743 15.7552 12.8926Z" fill="#5F5F57"/>
<path d="M42.4904 35.6981L29.6853 34.1359C27.6008 33.8816 26.3055 32.1118 26.5477 30.1265L28.0977 17.4207C28.3399 15.4354 30.1219 14.0409 32.1072 14.2831L44.813 15.8331C46.7983 16.0753 48.1928 17.8573 47.9506 19.8426L46.4006 32.5484C46.0591 34.5216 44.3764 35.9281 42.4904 35.6981Z" fill="#5F5F57"/>
<path d="M35.1503 19.893L33.8599 19.7356L33.206 25.0959L34.4964 25.2533L35.1503 19.893Z" fill="#A3BCD3"/>
<path d="M41.8009 20.7043L40.5105 20.5469L39.8566 25.9071L41.147 26.0646L41.8009 20.7043Z" fill="#A3BCD3"/>
<path d="M37.997 30.415L35.4161 30.1002L35.5735 28.8097C35.6583 28.1149 36.3266 27.5919 37.0214 27.6767C37.7163 27.7615 38.2392 28.4297 38.1544 29.1246L37.997 30.415Z" fill="#A3BCD3"/>
<g opacity="0.5">
<path opacity="0.5" d="M7.15215 35.5175L8.04313 34.8203L59.5612 41.1051C60.9509 41.2746 62.2874 40.2288 62.4569 38.8391L65.0726 17.398L69.082 14.2604L65.7277 41.7566C65.4734 43.8412 63.58 45.3228 61.4955 45.0685L7.89289 38.5294C6.61457 38.2727 6.03842 36.389 7.15215 35.5175Z" fill="#97AFC1"/>
</g>
<path d="M14.5847 40.6553L9.62146 40.0498L9.33083 42.4321L14.294 43.0376L14.5847 40.6553Z" fill="#5F5F57"/>
<path d="M6.5481 7.4376L4.16577 7.14697L3.5603 12.1102L5.94263 12.4008L6.5481 7.4376Z" fill="#5F5F57"/>
<path d="M72.8951 16.0353L70.5128 15.7446L69.9073 20.7078L72.2897 20.9985L72.8951 16.0353Z" fill="#5F5F57"/>
<path d="M43.6513 4.7107L38.6881 4.10522L38.3975 6.48756L43.3607 7.09303L43.6513 4.7107Z" fill="#5F5F57"/>
<path d="M60.7667 46.0877L55.8035 45.4822L55.5128 47.8645L60.476 48.47L60.7667 46.0877Z" fill="#5F5F57"/>
</svg>
