<svg width="108" height="157" viewBox="0 0 108 157" fill="none" xmlns="http://www.w3.org/2000/svg">
<path d="M57.3998 15.1001H51.2998V27.5001H57.3998V15.1001Z" fill="#A3BCD3"/>
<path d="M54.4001 0C49.0001 0 44.6001 4.40002 44.6001 9.80002C44.6001 15.2 49.0001 19.6 54.4001 19.6C59.8001 19.6 64.2001 15.2 64.2001 9.80002C64.2001 4.40002 59.8001 0 54.4001 0Z" fill="#8D82BF"/>
<path d="M40.3999 126.1C33.4999 126.1 27.8999 131.7 27.8999 138.6V150.8H52.8999V138.6C52.8999 131.7 47.2999 126.1 40.3999 126.1Z" fill="#A3BCD3"/>
<path opacity="0.7" d="M52.9002 138.6C52.9002 135.1 51.4002 131.9 49.1002 129.6C48.1002 138.9 46.3002 146.1 44.7002 150.8H52.9002V138.6Z" fill="#97AFC1"/>
<path d="M51.1 148.6H29.9C27.8 148.6 26 150.3 26 152.4V156.7H54.9L55 152.4C55 150.3 53.2 148.6 51.1 148.6Z" fill="#8D82BF"/>
<path d="M69.8999 126.1C62.9999 126.1 57.3999 131.7 57.3999 138.6V150.8H82.3999V138.6C82.3999 131.7 76.7999 126.1 69.8999 126.1Z" fill="#A3BCD3"/>
<path opacity="0.7" d="M82.4002 138.6C82.4002 135.1 80.9002 131.9 78.6002 129.6C77.6002 138.9 75.8002 146.1 74.2002 150.8H82.4002V138.6Z" fill="#97AFC1"/>
<path d="M80.6 148.6H59.4C57.3 148.6 55.5 150.3 55.5 152.4V156.7H84.4L84.5 152.4C84.5 150.3 82.7 148.6 80.6 148.6Z" fill="#8D82BF"/>
<path d="M75.9001 144.4H34.0001C30.5001 144.4 27.6001 141.5 27.6001 138V114.4C27.6001 104.1 36.0001 95.7 46.3001 95.7H63.6001C73.9001 95.7 82.3001 104.1 82.3001 114.4V138C82.3001 141.5 79.4001 144.4 75.9001 144.4Z" fill="#A3BCD3"/>
<path opacity="0.7" d="M70.4002 97C71.4002 108.8 71.9002 130.4 64.2002 144.3H75.9002C79.4002 144.3 82.3002 141.4 82.3002 137.9V114.3C82.3002 106.5 77.4002 99.8 70.4002 97Z" fill="#97AFC1"/>
<path d="M16.5 81.1C15.2 80.3 13.6 80.1 12.1 80.6L3.09999 84C1.19999 84.6 0 86.4 0 88.4V103.9C0 105.8 1.29999 107.6 3.09999 108.3L12.1 111.7C12.7 111.9 13.2 112 13.8 112C14.8 112 15.7 111.7 16.5 111.1C17.7 110.2 18.5 108.8 18.5 107.2V85C18.5 83.4 17.8 82 16.5 81.1Z" fill="#8D82BF"/>
<path d="M2.50015 84.6001C3.30015 90.7001 5.80013 104.8 12.8001 112C12.6001 112 12.4001 111.9 12.2001 111.9L3.20014 108.5C1.30014 107.9 0.100137 106.1 0.100137 104.1V88.7001C0.000137269 87.0001 1.00015 85.5001 2.50015 84.6001Z" fill="#827BB2"/>
<path d="M64.1 26.3H45.1C42 26.3 39.5 28.8 39.5 31.9V37.5H69.6L69.7 31.9C69.7 28.8 67.2 26.3 64.1 26.3Z" fill="#8D82BF"/>
<path d="M104.6 84.0999L95.6002 80.6999C94.1002 80.0999 92.5002 80.2999 91.2002 81.1999C90.0002 82.0999 89.2002 83.4999 89.2002 85.0999V107.3C89.2002 108.9 89.9002 110.3 91.2002 111.2C92.0002 111.7 92.9002 112 93.9002 112C94.4002 112 95.0002 111.9 95.6002 111.7L104.6 108.3C106.5 107.7 107.7 105.9 107.7 103.9V88.4999C107.7 86.5999 106.4 84.7999 104.6 84.0999Z" fill="#8D82BF"/>
<path d="M105.3 84.6001C104.5 90.7001 102 104.8 95 112C95.2 112 95.4 111.9 95.6 111.9L104.6 108.5C106.5 107.9 107.7 106.1 107.7 104.1V88.7001C107.7 87.0001 106.7 85.5001 105.3 84.6001Z" fill="#827BB2"/>
<path d="M87.6001 126.2H21.6001C15.0001 126.2 9.6001 120.8 9.6001 114.2V76.8999C9.6001 52.1999 29.8001 31.8999 54.6001 31.8999C79.3001 31.8999 99.6001 52.1999 99.6001 76.8999V114.2C99.6001 120.8 94.2001 126.2 87.6001 126.2Z" fill="#A3BCD3"/>
<path opacity="0.7" d="M91.4998 51.3C87.5998 76.9 80.5998 109.6 68.7998 126.3H87.5998C94.1998 126.3 99.5998 120.9 99.5998 114.3V77C99.5998 67.4 96.5998 58.6 91.4998 51.3Z" fill="#97AFC1"/>
<path d="M84.3998 121.5H24.2998C17.6998 121.5 12.2998 116.1 12.2998 109.5V82.7C12.2998 76.1 17.6998 70.7 24.2998 70.7H84.3998C90.9998 70.7 96.3998 76.1 96.3998 82.7V109.5C96.3998 116.1 90.9998 121.5 84.3998 121.5Z" fill="#5F5F57"/>
<path opacity="0.5" d="M30.7999 121.1H27.8999V126.2H30.7999V121.1Z" fill="#5F5F57"/>
<path opacity="0.5" d="M80.6002 121.1H77.7002V126.2H80.6002V121.1Z" fill="#5F5F57"/>
<path opacity="0.03" d="M84.0999 71.3999H71.4999L44.3999 120.7H83.9999C90.3999 120.7 95.5999 115.5 95.5999 109.1V83.0999C95.6999 76.6999 90.4999 71.3999 84.0999 71.3999Z" fill="white"/>
<path d="M83.7998 102C81.2998 102 79.2998 100 79.2998 97.5001V90.1001C79.2998 87.6001 81.2998 85.6001 83.7998 85.6001C86.2998 85.6001 88.2998 87.6001 88.2998 90.1001V97.5001C88.3998 100 86.3998 102 83.7998 102Z" fill="#D5D5D5"/>
<path d="M24.8999 102C22.3999 102 20.3999 100 20.3999 97.5001V90.1001C20.3999 87.6001 22.3999 85.6001 24.8999 85.6001C27.3999 85.6001 29.3999 87.6001 29.3999 90.1001V97.5001C29.3999 100 27.3999 102 24.8999 102Z" fill="#D5D5D5"/>
<path d="M54.9001 111.8C57.6001 111.8 59.9001 109.9 60.4001 107.3C60.5001 106.7 60.0001 106.2 59.5001 106.2H50.3001C49.7001 106.2 49.3001 106.7 49.4001 107.3C49.9001 109.8 52.2001 111.8 54.9001 111.8Z" fill="#D5D5D5"/>
</svg>
