<svg width="152" height="198" viewBox="0 0 152 198" fill="none" xmlns="http://www.w3.org/2000/svg">
<path d="M42.3999 54.7999C41.0999 53.9999 39.4999 53.7999 37.9999 54.2999L28.9999 57.7C27.0999 58.3 25.8999 60.1 25.8999 62.1V77.6C25.8999 79.5 27.1999 81.3 28.9999 82L37.9999 85.3999C38.5999 85.5999 39.0999 85.7 39.6999 85.7C40.6999 85.7 41.5999 85.3999 42.3999 84.7999C43.5999 83.8999 44.3999 82.4999 44.3999 80.8999V58.7C44.3999 57.1 43.6999 55.6999 42.3999 54.7999Z" fill="#8D82BF"/>
<path d="M28.2999 58.2998C29.0999 64.3998 31.5999 78.4998 38.5999 85.6998C38.3999 85.6998 38.1999 85.5998 37.9999 85.5998L28.9999 82.1998C27.0999 81.5998 25.8999 79.7998 25.8999 77.7998V62.3998C25.8999 60.6998 26.8999 59.1998 28.2999 58.2998Z" fill="#827BB2"/>
<path d="M66.6 153.2H57.2V155.7H66.6V153.2Z" fill="#5F5F57"/>
<path d="M103.8 153.2H94.3999V155.7H103.8V153.2Z" fill="#5F5F57"/>
<path d="M59.2999 112.8H52.8999V122.6H59.2999V112.8Z" fill="#5F5F57"/>
<path d="M142.8 138.1L142.7 136.2C142.7 135.8 142.7 135.4 142.7 135C142.7 121.9 128 111.7 115.4 111.7L107.1 111.5V121.2H110.4C120.6 121.2 131.6 125.5 132.2 135.1V138.1H142.8Z" fill="#5F5F57"/>
<path d="M142.7 135C142.7 135.4 142.7 135.8 142.7 136.2L142.8 138.1H132.3L132.2 137.5V135.1C132.1 134.3 132 133.5 131.8 132.8L142.1 130.7C142.5 132 142.7 133.5 142.7 135Z" fill="#A3BCD3"/>
<path opacity="0.7" d="M140.7 138.1H142.9L142.8 136.2V135C142.8 133.5 142.6 132 142.2 130.6L139.4 131.2C140.3 133.4 140.9 135.7 140.7 138.1Z" fill="#97AFC1"/>
<path d="M137.6 135.1C129.5 135.1 123 141.7 123 149.7V155.1C123 155.3 123.2 155.5 123.4 155.5H131.9C132.1 155.5 132.3 155.3 132.3 155.1V149.4C132.3 146.6 134.6 144.3 137.4 144.3C140.2 144.3 142.5 146.6 142.5 149.4V155.1C142.5 155.3 142.7 155.5 142.9 155.5H151.4C151.6 155.5 151.8 155.3 151.8 155.1C151.8 153.8 151.9 150.2 151.9 149.7C152.2 141.6 145.7 135.1 137.6 135.1Z" fill="#8D82BF"/>
<path d="M108.5 111.5H102.1V121.3H108.5V111.5Z" fill="#5F5F57"/>
<path d="M103.8 155H94.4001V170.1H103.8V155Z" fill="#5F5F57"/>
<path d="M99 166.6C92.1 166.6 86.5 172.2 86.5 179.1V191.3H111.5V179.1C111.5 172.2 105.9 166.6 99 166.6Z" fill="#A3BCD3"/>
<path opacity="0.7" d="M111.5 179.1C111.5 175.6 110 172.4 107.7 170.1C106.7 179.4 104.9 186.6 103.3 191.3H111.5V179.1Z" fill="#97AFC1"/>
<path d="M109.7 189.1H88.5001C86.4001 189.1 84.6001 190.8 84.6001 192.9V197.2H113.5L113.6 192.9C113.6 190.8 111.9 189.1 109.7 189.1Z" fill="#8D82BF"/>
<path d="M66.6 155H57.2V170.1H66.6V155Z" fill="#5F5F57"/>
<path d="M61.8 166.6C54.9 166.6 49.3 172.2 49.3 179.1V191.3H74.3V179.1C74.3 172.2 68.7 166.6 61.8 166.6Z" fill="#A3BCD3"/>
<path opacity="0.7" d="M74.3001 179.1C74.3001 175.6 72.8001 172.4 70.5001 170.1C69.5001 179.4 67.7001 186.6 66.1001 191.3H74.3001V179.1Z" fill="#97AFC1"/>
<path d="M72.6 189.1H51.4C49.3 189.1 47.5 190.8 47.5 192.9V197.2H76.4L76.5 192.9C76.4 190.8 74.7 189.1 72.6 189.1Z" fill="#8D82BF"/>
<path d="M45.5001 113C32.9001 113 18.2001 123.2 18.2001 136.3C18.2001 136.7 18.2001 137.1 18.2001 137.5L18.1001 139.4H28.7001V136.4C29.3001 126.8 40.3001 122.5 50.5001 122.5H53.8001V112.8L45.5001 113Z" fill="#5F5F57"/>
<path d="M0.100006 134.3V133.8L0 134.3H0.100006Z" fill="#5F5F57"/>
<path d="M18.2001 136.3C18.2001 136.7 18.2001 137.1 18.2001 137.5L18.1001 139.4H28.6001L28.7001 138.8V136.4C28.8001 135.6 28.9001 134.8 29.1001 134.1L18.8001 132C18.4001 133.3 18.2001 134.8 18.2001 136.3Z" fill="#A3BCD3"/>
<path opacity="0.7" d="M25.3001 133.3C24.8001 134.3 24.6001 135.6 24.3001 136.6C24.0001 137.5 23.8001 138.5 23.6001 139.4H28.5001L28.6001 138.8V136.4C28.7001 135.6 28.8001 134.8 29.0001 134.1L25.3001 133.3Z" fill="#97AFC1"/>
<path d="M21.7 136.4C14.2 137.2 8.69995 143.8 8.69995 151.3L8.79996 156.3C8.79996 156.5 8.99995 156.7 9.19995 156.7H17.7C17.9 156.7 18.1 156.5 18.1 156.3V150.6C18.1 147.8 20.4 145.5 23.2 145.5C26 145.5 28.3999 147.8 28.3999 150.7V156.4C28.3999 156.6 28.6 156.8 28.8 156.8H37.3C37.5 156.8 37.7 156.6 37.7 156.4V151C37.9 142.5 30.5 135.5 21.7 136.4Z" fill="#8D82BF"/>
<path d="M101.8 154.1H59.9C56.4 154.1 53.5 151.2 53.5 147.7V124.1C53.5 113.8 61.9 105.4 72.2 105.4H89.5C99.8 105.4 108.2 113.8 108.2 124.1V147.7C108.1 151.2 105.3 154.1 101.8 154.1Z" fill="#A3BCD3"/>
<path d="M94.1 9.90005H66.5V5.60007C66.5 3.20007 68.4 1.30005 70.8 1.30005H89.8C92.2 1.30005 94.1 3.20007 94.1 5.60007V9.90005Z" fill="#8D82BF"/>
<path d="M95.4 11.2H65.3V5.60001C65.3 2.50001 67.8 0 70.9 0H89.9C93 0 95.5 2.50001 95.5 5.60001L95.4 11.2ZM67.7 8.70001H92.8V5.60001C92.8 3.90001 91.4 2.5 89.7 2.5H70.7C69 2.5 67.6001 3.90001 67.6001 5.60001L67.7 8.70001Z" fill="#8D82BF"/>
<path d="M71.5 95.2997V106.6C71.5 106.9 71.7 107.1 72 107.2L74.4 107.5C78.4 107.9 82.4 107.9 86.3 107.5L88.7 107.2C89 107.2 89.2 106.9 89.2 106.6V95.2997C89.2 94.9997 88.9 94.6997 88.6 94.6997H72C71.8 94.7997 71.5 94.9997 71.5 95.2997Z" fill="#5F5F57"/>
<path d="M130.4 57.7996L121.4 54.3996C119.9 53.7996 118.3 53.9996 117 54.8996C115.8 55.7996 115 57.1996 115 58.7996V80.9996C115 82.5996 115.7 83.9996 117 84.8996C117.8 85.3996 118.7 85.6996 119.7 85.6996C120.2 85.6996 120.8 85.5996 121.4 85.3996L130.4 81.9996C132.3 81.3996 133.5 79.5996 133.5 77.5996V62.1996C133.5 60.2996 132.2 58.4996 130.4 57.7996Z" fill="#8D82BF"/>
<path d="M131.1 58.2998C130.3 64.3998 127.8 78.4998 120.8 85.6998C121 85.6998 121.2 85.5998 121.4 85.5998L130.4 82.1998C132.3 81.5998 133.5 79.7998 133.5 77.7998V62.3998C133.5 60.6998 132.5 59.1998 131.1 58.2998Z" fill="#827BB2"/>
<path d="M113.4 99.8996H47.3999C40.7999 99.8996 35.3999 94.4996 35.3999 87.8996V50.5996C35.3999 25.7996 55.5999 5.59961 80.3999 5.59961C105.1 5.59961 125.4 25.7996 125.4 50.5996V87.8996C125.4 94.4996 120 99.8996 113.4 99.8996Z" fill="#A3BCD3"/>
<path opacity="0.7" d="M117.3 25C113.4 50.6 106.4 83.3 94.6001 100H113.4C120 100 125.4 94.6 125.4 88V50.7C125.4 41.1 122.4 32.3 117.3 25Z" fill="#97AFC1"/>
<path d="M110.3 95.1999H50.2C43.6 95.1999 38.2 89.7999 38.2 83.1999V56.3999C38.2 49.7999 43.6 44.3999 50.2 44.3999H110.3C116.9 44.3999 122.3 49.7999 122.3 56.3999V83.1999C122.3 89.7999 116.9 95.1999 110.3 95.1999Z" fill="#5F5F57"/>
<path opacity="0.5" d="M56.7 94.7998H53.8V99.8998H56.7V94.7998Z" fill="#5F5F57"/>
<path opacity="0.5" d="M106.4 94.7998H103.5V99.8998H106.4V94.7998Z" fill="#5F5F57"/>
<path opacity="0.03" d="M109.9 45.1997H97.3L70.2 94.4997H109.8C116.2 94.4997 121.4 89.2997 121.4 82.8997V56.8997C121.5 50.3997 116.3 45.1997 109.9 45.1997Z" fill="white"/>
<path opacity="0.7" d="M96.3001 106.7C97.3001 118.5 97.8001 140.1 90.1001 154H101.8C105.3 154 108.2 151.1 108.2 147.6V124C108.1 116.2 103.2 109.5 96.3001 106.7Z" fill="#97AFC1"/>
<path d="M63.3001 121.9C65.6197 121.9 67.5001 120.02 67.5001 117.7C67.5001 115.38 65.6197 113.5 63.3001 113.5C60.9805 113.5 59.1001 115.38 59.1001 117.7C59.1001 120.02 60.9805 121.9 63.3001 121.9Z" fill="#5F5F57"/>
<path d="M63.2 121C65.0778 121 66.6001 119.478 66.6001 117.6C66.6001 115.722 65.0778 114.2 63.2 114.2C61.3223 114.2 59.8 115.722 59.8 117.6C59.8 119.478 61.3223 121 63.2 121Z" fill="#21F983"/>
<path d="M62.3 118.4C63.2941 118.4 64.1 117.594 64.1 116.6C64.1 115.606 63.2941 114.8 62.3 114.8C61.3059 114.8 60.5 115.606 60.5 116.6C60.5 117.594 61.3059 118.4 62.3 118.4Z" fill="#73F4A7"/>
<path d="M89.3 144.8H72.1C70 144.8 68.2 143.1 68.2 140.9V123.9C68.2 121.8 69.9 120 72.1 120H89.3C91.4 120 93.2 121.7 93.2 123.9V140.9C93.2 143.1 91.5 144.8 89.3 144.8Z" fill="url(#paint0_linear)"/>
<g opacity="0.05">
<g opacity="0.05">
<g opacity="0.05">
<g opacity="0.05">
<path opacity="0.05" d="M71.6001 121.2L69.8 122.9V121.2H71.6001Z" fill="white"/>
</g>
</g>
<g opacity="0.05">
<g opacity="0.05">
<path opacity="0.05" d="M91.7 135.1L83.2 143.7H69.8V122.9L71.6001 121.2H91.7V135.1Z" fill="white"/>
</g>
</g>
<g opacity="0.05">
<g opacity="0.05">
<path opacity="0.05" d="M83.2 143.7L91.7 135.1V143.7H83.2Z" fill="white"/>
</g>
</g>
</g>
</g>
<path d="M81.2001 137.7L86.9001 134.4C87.0001 134.3 87.1001 134.2 87.1001 134V127.6C87.1001 127.4 87.0001 127.3 86.9001 127.2L81.4001 124C81.3001 123.9 81.1001 123.9 80.9001 124L75.3001 127.2C75.2001 127.3 75.1001 127.4 75.1001 127.6V134.3V140.5C75.1001 140.8 75.5001 141.1 75.8001 140.9L81.2001 137.7ZM86.1001 133.4L82.3001 131.2C82.0001 131 82.0001 130.6 82.3001 130.4L86.2001 128.2C86.5001 128 86.9001 128.2 86.9001 128.6V133.1C86.7001 133.4 86.4001 133.6 86.1001 133.4ZM82.0001 124.8L85.8001 127C86.1001 127.2 86.1001 127.6 85.8001 127.8L81.9001 130C81.6001 130.2 81.2001 130 81.2001 129.6V125.1C81.4001 124.9 81.7001 124.7 82.0001 124.8ZM82.0001 131.5L85.8001 133.7C86.1001 133.9 86.1001 134.3 85.8001 134.5L81.9001 136.7C81.6001 136.9 81.2001 136.7 81.2001 136.3V131.9C81.3001 131.6 81.7001 131.4 82.0001 131.5ZM80.2001 136.7L76.4001 134.5C76.1001 134.3 76.1001 133.9 76.4001 133.7L80.3001 131.5C80.6001 131.3 81.0001 131.5 81.0001 131.9V136.3C80.9001 136.7 80.5001 136.9 80.2001 136.7ZM81.0001 125.2V129.7C81.0001 130 80.6001 130.3 80.3001 130.1L76.5001 127.9C76.2001 127.7 76.2001 127.3 76.5001 127.1L80.4001 124.9C80.6001 124.7 81.0001 124.9 81.0001 125.2ZM76.2001 128.2L80.0001 130.4C80.3001 130.6 80.3001 131 80.0001 131.2L76.1001 133.4C75.8001 133.6 75.4001 133.4 75.4001 133V128.5C75.6001 128.2 75.9001 128 76.2001 128.2ZM76.2001 134.9L80.0001 137.1C80.3001 137.3 80.3001 137.7 80.0001 137.9L76.1001 140.1C75.8001 140.3 75.4001 140.1 75.4001 139.7V135.2C75.5001 134.9 75.9001 134.7 76.2001 134.9Z" fill="white"/>
<path d="M75.6001 141.1C75.5001 141.1 75.4 141.1 75.2 141C75 140.9 74.8 140.6 74.8 140.4V127.6C74.8 127.4 74.9 127.1 75.2 127L80.8 123.8C81 123.7 81.3 123.7 81.5 123.8L87 127C87.2 127.1 87.3 127.4 87.3 127.6V134C87.3 134.3 87.2 134.5 86.9 134.6L81.2 137.9L75.8 141C75.8 141.1 75.7001 141.1 75.6001 141.1ZM75.4 140.1V140.4C75.4 140.5 75.5 140.6 75.5 140.6C75.5 140.6 75.6 140.7 75.7 140.6L76 140.4C75.9 140.4 75.7001 140.4 75.6001 140.3C75.5001 140.2 75.4 140.2 75.4 140.1ZM76 135H75.9C75.9 135 75.8 135.1 75.8 135.2V139.7C75.8 139.8 75.9 139.9 75.9 139.9C75.9 139.9 76.0001 140 76.1001 139.9L80 137.7C80.1 137.6 80.1001 137.6 80.1001 137.5C80.1001 137.5 80.1 137.4 80 137.3L76.2 135.1C76 135.1 76 135 76 135ZM80.4 137.1C80.5 137.2 80.5 137.4 80.5 137.5C80.5 137.6 80.5 137.7 80.4 137.8L81.7 137C81.6 137 81.5 137 81.4 136.9C81.3 136.8 81.2001 136.7 81.1001 136.6C81.0001 136.7 80.9 136.9 80.8 136.9C80.7 137 80.5 137.1 80.4 137.1ZM81.8 131.7H81.7C81.7 131.7 81.6001 131.8 81.6001 131.9V136.3C81.6001 136.4 81.7 136.5 81.7 136.5C81.7 136.5 81.8 136.6 81.9 136.5L85.8 134.3C85.9 134.2 85.9 134.2 85.9 134.1C85.9 134.1 85.9 134 85.8 133.9L82 131.7C81.9 131.7 81.8 131.7 81.8 131.7ZM80.5 131.7C80.5 131.7 80.4 131.7 80.5 131.7L76.5 133.9C76.4 134 76.4 134 76.4 134.1C76.4 134.1 76.4 134.2 76.5 134.3L80.3 136.5C80.4 136.6 80.5 136.5 80.5 136.5C80.5 136.5 80.6001 136.4 80.6001 136.3V131.9C80.6001 131.8 80.5 131.7 80.5 131.7C80.6 131.7 80.5 131.7 80.5 131.7ZM75.4 133.4V134.9C75.5 134.8 75.5001 134.7 75.6001 134.7C75.7001 134.6 75.9001 134.6 76.1001 134.6C76.0001 134.5 76 134.3 76 134.2C76 134.1 76.1001 133.9 76.1001 133.8C75.9001 133.8 75.8001 133.8 75.6001 133.7C75.5001 133.5 75.5 133.5 75.4 133.4ZM86.2 133.7C86.3 133.8 86.3 134 86.3 134.1C86.3 134.2 86.3 134.3 86.2 134.5L86.8 134.2C86.9 134.2 86.9 134.1 86.9 134V133.4C86.8 133.5 86.7001 133.6 86.6001 133.7C86.5001 133.7 86.3 133.8 86.2 133.7ZM86.3 128.4C86.3 128.4 86.2 128.4 86.3 128.4L82.3 130.6C82.2 130.7 82.2 130.7 82.2 130.8C82.2 130.8 82.2 130.9 82.3 131L86.1001 133.2C86.2001 133.3 86.3 133.2 86.3 133.2C86.3 133.2 86.4 133.1 86.4 133V128.5C86.4 128.4 86.3 128.3 86.3 128.4C86.4 128.4 86.3 128.4 86.3 128.4ZM76 128.3H75.9C75.9 128.3 75.8 128.4 75.8 128.5V133C75.8 133.1 75.9 133.2 75.9 133.2C75.9 133.2 76.0001 133.3 76.1001 133.2L80 131C80.1 130.9 80.1001 130.9 80.1001 130.8C80.1001 130.8 80.1 130.7 80 130.6L76.2 128.4C76.1 128.3 76 128.3 76 128.3ZM80.5 131.2C80.6 131.2 80.7 131.2 80.9 131.3C81 131.4 81.1 131.5 81.2 131.6C81.3 131.5 81.4 131.3 81.5 131.3C81.6 131.2 81.8 131.2 81.9 131.2C81.8 131.1 81.8 130.9 81.8 130.8C81.8 130.6 81.9 130.5 81.9 130.4C81.8 130.4 81.6 130.4 81.5 130.3C81.4 130.2 81.3 130.1 81.2 130C81.1 130.1 81 130.3 80.9 130.3C80.8 130.3 80.6 130.4 80.5 130.4C80.6 130.5 80.6001 130.7 80.6001 130.8C80.6001 131 80.5 131.1 80.5 131.2C80.4 131.2 80.5 131.2 80.5 131.2ZM81.8 125H81.7C81.7 125 81.6001 125.1 81.6001 125.2V129.7C81.6001 129.8 81.7 129.9 81.7 129.9C81.7 129.9 81.8 130 81.9 129.9L85.8 127.7C85.9 127.6 85.9 127.6 85.9 127.5C85.9 127.5 85.9 127.4 85.8 127.3L82 125.1C81.9 125 81.8 125 81.8 125ZM80.5 125L76.5 127.2C76.4 127.3 76.4 127.3 76.4 127.4C76.4 127.4 76.4 127.5 76.5 127.6L80.3 129.8C80.4 129.9 80.5 129.8 80.5 129.8C80.5 129.8 80.6001 129.7 80.6001 129.6V125.1C80.6001 125 80.5 124.9 80.5 125C80.6 125 80.6 125 80.5 125ZM86.3 127.9C86.4 127.9 86.5 127.9 86.7 128C86.8 128.1 86.9 128.1 86.9 128.2V127.6C86.9 127.5 86.9 127.5 86.8 127.4L86.3 127.1C86.4 127.2 86.4 127.3 86.4 127.4C86.4 127.6 86.3 127.8 86.3 127.9C86.2 127.9 86.3 127.9 86.3 127.9ZM76 127.1L75.5 127.4C75.4 127.4 75.4 127.5 75.4 127.6V128.2C75.5 128.1 75.5001 128 75.6001 128C75.7001 127.9 75.9 127.9 76 127.9C75.9 127.8 75.9 127.6 75.9 127.5C76 127.3 76 127.2 76 127.1ZM80.6001 124.5C80.7001 124.5 80.8 124.5 80.9 124.6C81 124.7 81.1 124.8 81.2 124.9C81.3 124.8 81.4 124.6 81.5 124.6C81.6 124.5 81.7 124.5 81.8 124.5L81.3 124.2C81.2 124.2 81.2001 124.2 81.1001 124.2L80.6001 124.5Z" fill="white"/>
<path d="M89.7 145.1H71.9C69.7 145.1 67.8 143.3 67.8 141V123.3C67.8 121.1 69.6 119.2 71.9 119.2H89.6001C91.8001 119.2 93.7 121 93.7 123.3V141C93.7 143.3 91.9 145.1 89.7 145.1ZM71.9 120.3C70.2 120.3 68.8 121.7 68.8 123.4V141.1C68.8 142.8 70.2 144.2 71.9 144.2H89.6001C91.3001 144.2 92.7 142.8 92.7 141.1V123.4C92.7 121.7 91.3001 120.3 89.6001 120.3H71.9Z" fill="#5F5F57"/>
<path d="M51.1001 77.5996C48.6001 77.5996 46.6001 75.5996 46.6001 73.0996V65.5996C46.6001 63.0996 48.6001 61.0996 51.1001 61.0996C53.6001 61.0996 55.6001 63.0996 55.6001 65.5996V72.9996C55.6001 75.4996 53.6001 77.5996 51.1001 77.5996Z" fill="#D5D5D5"/>
<path d="M110 77.5996C107.5 77.5996 105.5 75.5996 105.5 73.0996V65.5996C105.5 63.0996 107.5 61.0996 110 61.0996C112.5 61.0996 114.5 63.0996 114.5 65.5996V72.9996C114.6 75.4996 112.5 77.5996 110 77.5996Z" fill="#D5D5D5"/>
<path d="M81.1 87.2997C83.8 87.2997 86.1 85.3997 86.6 82.7997C86.7 82.1997 86.2 81.6997 85.7 81.6997H76.5C75.9 81.6997 75.5 82.1997 75.6 82.7997C76.1 85.3997 78.4 87.2997 81.1 87.2997Z" fill="#D5D5D5"/>
<defs>
<linearGradient id="paint0_linear" x1="65.1146" y1="144.575" x2="140.92" y2="85.4003" gradientUnits="userSpaceOnUse">
<stop stop-color="#2988FE"/>
<stop offset="0.1292" stop-color="#3175F1"/>
<stop offset="0.2775" stop-color="#5C71EE"/>
<stop offset="0.5331" stop-color="#BB45CF"/>
<stop offset="0.573" stop-color="#BC85CF"/>
<stop offset="0.6173" stop-color="#BEC7CE"/>
<stop offset="0.6496" stop-color="#BFEFCE"/>
<stop offset="0.6663" stop-color="#BFFFCE"/>
</linearGradient>
</defs>
</svg>
