<svg width="163" height="162" viewBox="0 0 163 162" fill="none" xmlns="http://www.w3.org/2000/svg">
<path d="M110.439 108.981L108.72 110.657L112.211 114.237L113.929 112.561L110.439 108.981Z" fill="#5F5F57"/>
<path d="M108.736 98.2111L97.4951 109.172L104.686 116.546L115.927 105.585L108.736 98.2111Z" fill="#8D82BF"/>
<path d="M117.41 105.675L104.738 118.032L96.081 109.154L108.753 96.797L117.41 105.675ZM104.774 115.204L114.582 105.639L108.718 99.6252L98.9092 109.19L104.774 115.204Z" fill="#5F5F57"/>
<path d="M46.7212 126L37.9039 129.849C36.5525 130.468 35.0006 130.166 33.9533 129.092L23.132 117.995C22.0847 116.921 21.8215 115.362 22.4748 114.027L26.5446 105.309C27.5629 103.059 30.4681 102.6 32.2135 104.39L47.7124 120.284C49.4578 122.074 48.9264 124.967 46.7212 126Z" fill="#8D82BF"/>
<path d="M48.5577 126.165C48.1282 126.583 47.7004 126.861 47.1312 127.137L38.3139 130.986C36.5365 131.741 34.3491 131.36 33.0226 130L22.2013 118.903C20.805 117.471 20.4074 115.344 21.3488 113.588L25.4187 104.871C26.1435 103.465 27.4287 102.492 28.9179 102.157C30.477 101.893 31.9556 102.407 33.0726 103.553L48.5716 119.447C49.6886 120.592 50.0933 122.153 49.8625 123.635C49.7086 124.623 49.2737 125.466 48.5577 126.165ZM46.2414 124.792C46.952 124.518 47.455 123.888 47.5354 123.111C47.6858 122.406 47.4834 121.625 46.9947 121.124L31.4259 105.158C30.9372 104.657 30.1621 104.435 29.4533 104.568C28.7445 104.7 28.1019 105.187 27.7404 105.819L23.6705 114.537C23.2356 115.38 23.4344 116.443 24.0627 117.087L34.8841 128.185C35.5124 128.829 36.5703 129.054 37.4241 128.641L46.2414 124.792Z" fill="#5F5F57"/>
<path d="M126.639 46.6721L130.709 37.9545C131.362 36.6191 131.099 35.06 130.052 33.9861L119.23 22.8889C118.183 21.815 116.631 21.5126 115.28 22.132L106.462 25.9812C104.187 26.9426 103.656 29.8352 105.401 31.6251L120.9 47.5192C122.644 49.4505 125.621 48.9222 126.639 46.6721Z" fill="#8D82BF"/>
<path d="M126.755 48.6537C126.04 49.3519 125.186 49.7654 124.264 49.966C122.705 50.2292 121.226 49.7156 120.109 48.5701L104.61 32.676C103.493 31.5305 103.089 29.9696 103.319 28.4875C103.622 26.9355 104.628 25.6753 106.12 25.0576L114.938 21.2085C116.715 20.453 118.902 20.8341 120.229 22.1944L130.981 33.22C132.377 34.6519 132.774 36.7784 131.833 38.5345L127.763 47.2521C127.473 47.8141 127.113 48.3046 126.755 48.6537ZM106.3 27.6764C106.013 27.9557 105.725 28.3763 105.648 28.8704C105.498 29.5756 105.7 30.356 106.189 30.8572L121.688 46.7513C122.177 47.2525 122.952 47.4744 123.66 47.3419C124.369 47.2093 125.012 46.7224 125.373 46.0905L129.443 37.3729C129.878 36.5298 129.679 35.4666 129.051 34.8222L118.23 23.725C117.601 23.0807 116.543 22.8552 115.69 23.2687L106.872 27.1179C106.727 27.3989 106.514 27.467 106.3 27.6764Z" fill="#5F5F57"/>
<path d="M143.429 66.7547L65.6051 142.644C63.5289 144.669 60.2764 144.628 58.2518 142.551L15.455 98.6636C13.4304 96.5874 13.4713 93.3349 15.5476 91.3103L93.3713 15.4212C95.4475 13.3965 98.7 13.4375 100.725 15.5137L143.521 59.4014C145.546 61.4777 145.433 64.7999 143.429 66.7547Z" fill="#A3BCD3"/>
<path d="M144.336 67.6855L66.5127 143.575C64.0068 146.018 59.9059 145.967 57.4624 143.461L14.6657 99.5731C12.2222 97.0672 12.2738 92.9663 14.7796 90.5228L92.6033 14.6337C95.1091 12.1901 99.21 12.2418 101.654 14.7476L144.45 58.6353C146.965 61.0713 146.842 65.242 144.336 67.6855ZM16.4552 92.2411C14.8801 93.777 14.9196 96.2526 16.3858 97.7561L59.1825 141.644C60.7184 143.219 63.194 143.179 64.6975 141.713L142.521 65.8241C144.096 64.2881 144.057 61.8125 142.591 60.3091L99.7939 16.4214C98.258 14.8463 95.7824 14.8858 94.2789 16.352L16.4552 92.2411Z" fill="#5F5F57"/>
<path d="M124.464 67.7891L66.7582 124.06C63.3217 127.411 57.8067 127.342 54.4556 123.905L28.4145 97.2004L98.5776 28.7815L124.619 55.4864C127.898 58.9928 127.9 64.438 124.464 67.7891Z" fill="#D5D5D5"/>
<path d="M125.302 68.6482L67.596 124.919C63.6583 128.759 57.3665 128.609 53.5964 124.743L26.6478 97.1074L98.6007 26.9431L125.549 54.5788C129.246 58.6561 129.239 64.8084 125.302 68.6482ZM30.1114 97.2217L55.3147 123.068C58.1771 126.003 62.8437 126.062 65.7791 123.199L123.485 66.9282C126.42 64.0657 126.479 59.3992 123.616 56.4638L98.413 30.618L30.1114 97.2217Z" fill="#5F5F57"/>
<path d="M124.464 67.7889L66.7583 124.06C63.3217 127.411 57.8067 127.342 54.4556 123.905L28.4146 97.2002L98.5776 28.7813L124.619 55.4862C127.898 58.9926 127.9 64.4378 124.464 67.7889Z" fill="#5F5F57"/>
<g opacity="0.03">
<g opacity="0.03">
<g opacity="0.03">
<path opacity="0.03" d="M76.5979 50.2147L71.5519 74.6898L61.7778 64.6665L76.5979 50.2147Z" fill="white"/>
</g>
<g opacity="0.03">
<path opacity="0.03" d="M127.27 58.3484L125.538 66.7419L93.8928 97.6002L71.5519 74.6898L76.5979 50.2147L98.506 28.8513L127.27 58.3484Z" fill="white"/>
</g>
<g opacity="0.03">
<path opacity="0.03" d="M125.538 66.7417L127.27 58.3483L130.621 61.7849L125.538 66.7417Z" fill="white"/>
</g>
</g>
</g>
<path d="M65.5479 46.0449L45.7877 65.3139L42.7857 62.2353C41.1101 60.517 41.1439 57.8302 42.8622 56.1547L56.4653 42.8898C58.1835 41.2142 60.8703 41.248 62.5459 42.9663L65.5479 46.0449Z" fill="#8D82BF"/>
<path d="M67.3863 46.068L45.8362 67.0824L41.9266 63.073C39.7623 60.8536 39.8068 57.3184 42.0262 55.1541L55.6292 41.8892C57.8487 39.7249 61.384 39.7694 63.5482 41.9889L67.3863 46.068ZM45.8091 63.6169L63.7795 46.0933L61.6152 43.8739C60.4283 42.6567 58.4486 42.6318 57.2315 43.8187L43.6284 57.0836C42.4113 58.2704 42.3864 60.2502 43.5732 61.4673L45.8091 63.6169Z" fill="#5F5F57"/>
<g opacity="0.5">
<g opacity="0.5">
<path opacity="0.5" d="M95.1673 24.4248L24.0736 93.7513C23.8588 93.9607 23.8552 94.2435 24.0647 94.4583L26.5082 96.9641L98.3895 26.8697L95.946 24.3639C95.6649 24.2189 95.3821 24.2153 95.1673 24.4248Z" fill="#97AFC1"/>
</g>
</g>
<path d="M27.9335 79.2322L27.6471 79.5115L36.7929 88.8904L37.0793 88.6112L27.9335 79.2322Z" fill="#D5D5D5"/>
<path d="M27.9549 77.5354L25.8786 79.5601L36.7698 90.7289L38.846 88.7042L27.9549 77.5354Z" fill="#5F5F57"/>
<path d="M81.1286 27.3594L80.8422 27.6387L89.988 37.0176L90.2744 36.7383L81.1286 27.3594Z" fill="#D5D5D5"/>
<path d="M81.1499 25.6626L79.0737 27.6873L89.9648 38.8561L92.0411 36.8314L81.1499 25.6626Z" fill="#5F5F57"/>
<g opacity="0.5">
<g opacity="0.5">
<path opacity="0.5" d="M70.4389 129.41L132.655 68.7408C135.734 65.7387 135.724 60.8592 132.792 57.8522L101.375 25.6345C100.537 24.7753 100.127 23.6387 100.142 22.5074L100.213 16.851L142.451 60.166C143.987 61.7411 143.955 64.2864 142.38 65.8224L67.9927 138.36L68.6295 132.711C68.7851 131.582 69.4366 130.388 70.4389 129.41Z" fill="#97AFC1"/>
</g>
</g>
<path d="M76.8517 69.382C76.4453 67.9626 76.0371 66.6845 75.6288 65.4065C75.3567 64.5545 75.3567 64.5545 74.5763 64.7568C74.0089 64.8911 73.5828 65.0272 73.0154 65.1615C72.661 65.2277 72.6592 65.3691 72.7971 65.6537C73.3396 67.4992 73.8821 69.3447 74.4246 71.1901C74.4908 71.5445 74.4175 71.7557 74.2027 71.9652C70.5514 75.5258 66.9716 79.0165 63.3203 82.5771C62.9623 82.9262 62.9605 83.0676 63.3096 83.4256C67.1494 87.3633 70.9194 91.2294 74.7593 95.1671C75.1083 95.5251 75.2498 95.5269 75.6077 95.1778C77.1112 93.7117 78.6147 92.2456 80.1182 90.7794C80.3295 90.8528 80.2561 91.064 80.3259 91.1356C80.7341 92.4137 81.1405 93.8331 81.5488 95.1111C81.615 95.4656 81.7564 95.4673 82.1108 95.4011C82.7498 95.197 83.3889 94.9929 84.0977 94.8603C84.4521 94.7941 84.5255 94.5829 84.4592 94.2285C83.9167 92.383 83.3724 90.679 82.8299 88.8335C82.6939 88.4075 82.7672 88.1963 83.0536 87.917C86.6334 84.4263 90.2847 80.8657 93.8644 77.3749C94.294 76.956 94.1544 76.8128 93.8053 76.4549C92.6883 75.3093 91.5712 74.1638 90.4542 73.0183C90.2447 72.8035 90.2465 72.6621 90.4613 72.4527C90.9625 71.964 91.4636 71.4753 91.9648 70.9866C92.1796 70.7771 92.1813 70.6357 91.9719 70.4209C90.785 69.2038 89.5982 67.9867 88.3415 66.698C88.1321 66.4832 88.0605 66.553 87.9173 66.6926C87.4161 67.1813 86.8434 67.7399 86.3422 68.2286C86.0558 68.5078 85.9144 68.506 85.6351 68.2197C84.5181 67.0741 83.4011 65.9286 82.284 64.7831C82.0048 64.4967 81.7935 64.4234 81.4355 64.7724C79.8587 66.4498 78.4268 67.8461 76.8517 69.382ZM81.4603 85.2805C81.4621 85.1391 81.3923 85.0674 81.3225 84.9959C80.1712 80.9505 78.9483 76.9751 77.7273 72.8581C77.6592 72.6451 77.7326 72.4339 77.8758 72.2943C79.0213 71.1772 80.1668 70.0602 81.3123 68.9431C81.5271 68.7337 81.6686 68.7355 81.878 68.9503C84.3914 71.5277 86.9745 74.1767 89.4879 76.7541C89.6973 76.9689 89.6955 77.1103 89.4807 77.3198C88.908 77.8783 88.3352 78.4368 87.7624 78.9953C85.756 81.0916 83.6082 83.186 81.4603 85.2805ZM75.4398 74.8094C76.7307 78.9979 77.9518 83.1148 79.103 87.1601C79.2409 87.4447 79.0977 87.5844 78.9545 87.724C77.809 88.841 76.6635 89.9581 75.5895 91.0053C75.3031 91.2846 75.2333 91.213 74.9541 90.9266C72.4407 88.3492 69.9274 85.7718 67.414 83.1943C67.1348 82.908 67.1365 82.7666 67.4229 82.4873C69.4276 80.5325 71.3607 78.6474 73.3653 76.6926C73.8647 76.3453 74.5806 75.6472 75.4398 74.8094Z" fill="#FCFCFC"/>
</svg>
