<svg width="59" height="57" viewBox="0 0 59 57" fill="none" xmlns="http://www.w3.org/2000/svg">
<path d="M49.9177 13.0333L48.0193 12.404C36.3442 8.5333 19.9086 13.6197 16.038 25.2948C15.9121 25.6744 15.8177 25.9592 15.6918 26.3389L15.3771 27.2881L23.5402 29.9944L23.8549 29.0452L23.8863 28.9503C27.3164 18.604 40.1538 17.6977 50.5001 21.1278L50.6899 21.1908L53.0501 14.0718L49.9177 13.0333Z" fill="#D5D5D5"/>
<path d="M24.1747 31.2582L14.1132 27.9225L14.7426 26.0241C14.837 25.7394 14.9629 25.3597 15.0887 24.98C19.2111 12.5456 36.3741 7.48967 48.334 11.4547L54.3139 13.4372L51.3244 22.4546L50.0905 22.0455C40.3137 18.8042 28.488 19.5192 24.9294 28.6639L24.1747 31.2582ZM16.7359 26.685L22.9057 28.7304L22.9371 28.6355C26.4931 17.9096 39.3615 16.5922 50.1503 19.9583L51.8811 14.7377L47.7995 13.3846C36.8838 9.76568 20.7954 14.4404 17.0821 25.6409C16.8613 25.9891 16.7669 26.2738 16.7359 26.685Z" fill="#5F5F57"/>
<path d="M9.95524 37.9221C10.9622 34.8846 14.2169 33.3298 17.1594 34.3053L18.0137 34.5886C21.0511 35.5956 22.6059 38.8502 21.6303 41.7927L19.8681 47.1082L26.8921 49.4369C27.7418 46.8741 27.8677 46.4944 28.4026 44.8807C30.7628 37.7618 26.8923 30.0521 19.7733 27.6919C12.6544 25.3318 4.94468 29.2023 2.58452 36.3212C2.04956 37.9349 1.89169 38.0933 1.07402 40.8774L8.09806 43.2061L9.86031 37.8906L9.95524 37.9221Z" fill="#8D82BF"/>
<path d="M27.6216 50.7322L18.6991 47.7741L20.7761 41.5094C21.5943 39.0415 20.2618 36.3874 17.7939 35.5692L16.9396 35.286C14.4717 34.4678 11.8176 35.8002 10.9994 38.2682L8.92244 44.5329L-4.23764e-06 41.5748L0.314683 40.6256C0.912588 38.8221 1.16434 38.0627 1.38463 37.3983C1.5105 37.0186 1.63637 36.639 1.82519 36.0694C4.34268 28.4759 12.5894 24.2566 20.2779 26.8056C27.9664 29.3546 32.0907 37.5698 29.5417 45.2583C29.3214 45.9227 29.1641 46.3974 28.9752 46.9669C28.755 47.6313 28.5032 48.3907 28.0312 49.8145L27.7165 50.7637L27.6216 50.7322ZM21.2269 46.5051L26.3526 48.2044C26.6358 47.3501 26.8246 46.7806 26.9819 46.306C27.1708 45.7365 27.2966 45.3568 27.5484 44.5975C29.7197 38.048 26.1979 30.8753 19.5536 28.6725C13.0041 26.5012 5.83147 30.023 3.62867 36.6673C3.43985 37.2369 3.31398 37.6165 3.18811 37.9962C2.99929 38.5657 2.81047 39.1353 2.43285 40.2743L7.5585 41.9736L9.00606 37.6073C10.1704 34.0953 13.9621 32.1918 17.4741 33.3561L18.3284 33.6393C21.8404 34.8037 23.7439 38.5953 22.5796 42.1073L21.132 46.4736L21.2269 46.5051Z" fill="#5F5F57"/>
<path d="M16.8501 23.2906L24.4429 27.3291L25.1473 26.0048L17.5545 21.9663L16.8501 23.2906Z" fill="#5F5F57"/>
<path d="M21.8172 17.2893L27.5262 23.3137L28.615 22.282L22.9059 16.2576L21.8172 17.2893Z" fill="#5F5F57"/>
<path d="M28.4918 13.3947L31.8762 20.7539L33.239 20.1272L29.8546 12.768L28.4918 13.3947Z" fill="#5F5F57"/>
<path d="M35.3899 11.2022L36.7974 19.4839L38.2763 19.2326L36.8688 10.9508L35.3899 11.2022Z" fill="#5F5F57"/>
<path d="M42.3429 10.7258L41.1546 19.3445L42.6406 19.5494L43.8288 10.9307L42.3429 10.7258Z" fill="#5F5F57"/>
<path d="M57.1042 18.0495L52.3582 16.4761L51.603 18.7541L56.3489 20.3276L57.1042 18.0495Z" fill="#5F5F57"/>
</svg>
