<svg width="48" height="32" viewBox="0 0 48 32" fill="none" xmlns="http://www.w3.org/2000/svg">
<path d="M42.1471 18.0386L41.7256 10.6506L28.6468 11.3968L29.0683 18.7848L42.1471 18.0386Z" fill="#D5D5D5"/>
<path d="M28.1212 19.7404L27.5858 10.3557L42.6613 9.49561L43.1967 18.8803L28.1212 19.7404ZM29.7021 12.3383L30.0097 17.7296L41.0917 17.0973L40.7841 11.7061L29.7021 12.3383Z" fill="#5F5F57"/>
<path d="M30.3552 15.0055C29.9907 8.61589 24.5086 3.82036 18.2189 4.1792L7.03707 4.81713L8.34712 27.7798L19.5289 27.1419C25.9185 26.7773 30.7141 21.2953 30.3552 15.0055Z" fill="#A3BCD3"/>
<path d="M7.40569 28.835L5.98172 3.87563L18.1619 3.18073C25.0507 2.78772 30.9606 8.05966 31.3536 14.9485C31.7466 21.8373 26.4747 27.7471 19.5859 28.1401L7.40569 28.835ZM8.08669 5.65862L9.28283 26.6245L19.4662 26.0436C25.2568 25.7132 29.6815 20.7531 29.3511 14.9625C29.0208 9.17195 24.0607 4.74728 18.2701 5.07764L8.08669 5.65862Z" fill="#5F5F57"/>
<path d="M8.48973 26.7702L7.30499 6.00395C7.21955 4.50639 5.94747 3.27685 4.35007 3.36798L1.0554 3.55594L2.55912 29.9131L5.85378 29.7251C7.45118 29.634 8.57517 28.2678 8.48973 26.7702Z" fill="#8D82BF"/>
<path d="M1.61769 30.9683L5.79277e-05 2.61444L4.2931 2.36952C6.38969 2.24991 8.18374 3.85032 8.30336 5.94691L9.4938 26.813C9.61341 28.9096 8.01301 30.7036 5.91642 30.8233L1.62338 31.0682L1.61769 30.9683ZM2.11073 4.49728L3.50052 28.8577L5.79681 28.7267C6.79518 28.6697 7.54831 27.8254 7.49135 26.8271L6.3066 6.06083C6.24965 5.06245 5.40539 4.30931 4.40701 4.36627L2.11073 4.49728Z" fill="#5F5F57"/>
<path d="M38.553 18.2437L38.1315 10.8557L36.6339 10.9412L37.0554 18.3292L38.553 18.2437Z" fill="#5F5F57"/>
<path d="M34.3597 18.483L33.9382 11.095L32.4407 11.1804L32.8622 18.5684L34.3597 18.483Z" fill="#5F5F57"/>
<g opacity="0.5">
<path opacity="0.5" d="M20.2707 26.0978C19.9712 26.1149 9.48818 26.713 9.48818 26.713L9.07239 19.4248L29.0399 18.2856C29.0456 18.3855 27.5189 24.9831 20.2707 26.0978Z" fill="#97AFC1"/>
</g>
<path d="M46.697 15.2753L46.5603 12.8792L41.5684 13.1639L41.7051 15.5601L46.697 15.2753Z" fill="#5F5F57"/>
</svg>
