<svg width="78" height="79" viewBox="0 0 78 79" fill="none" xmlns="http://www.w3.org/2000/svg">
<path d="M39.7 56.1L56.5 46.5C56.9 46.3 57.2 45.8 57.2 45.3V26.5C57.2 26 56.9 25.6 56.5 25.4L40.2 15.9C39.8 15.7 39.3 15.7 38.9 15.9L22.6 25.2C22.2 25.4 21.9 25.9 21.9 26.3V46V64.2C21.9 65.2 23 65.9 23.9 65.4L39.7 56.1ZM54 43.6L42.7 37C41.8 36.5 41.8 35.2 42.7 34.7L54.1 28.2C55 27.7 56.1 28.3 56.1 29.4L56 42.5C56 43.5 54.9 44.1 54 43.6ZM42.2 18.3L53.5 24.9C54.4 25.4 54.4 26.7 53.5 27.2L42.1 33.7C41.2 34.2 40.1 33.6 40.1 32.5L40.2 19.4C40.2 18.5 41.3 17.8 42.2 18.3ZM42.1 38.1L53.4 44.7C54.3 45.2 54.3 46.5 53.4 47L42.1 53.5C41.2 54 40.1 53.4 40.1 52.3L40.2 39.2C40.1 38.2 41.3 37.5 42.1 38.1ZM36.9 53.4L25.6 46.8C24.7 46.3 24.7 45 25.6 44.5L37 38C37.9 37.5 39 38.1 39 39.2L38.9 52.3C38.9 53.3 37.8 53.9 36.9 53.4ZM39.1 19.5L39 32.6C39 33.6 37.9 34.3 37 33.7L25.7 27.1C24.8 26.6 24.8 25.3 25.7 24.8L37.1 18.3C38 17.8 39.1 18.5 39.1 19.5ZM25.1 28.1L36.4 34.7C37.3 35.2 37.3 36.5 36.4 37L25 43.5C24.1 44 23 43.4 23 42.3L23.1 29.2C23.1 28.2 24.3 27.6 25.1 28.1ZM25.1 47.8L36.4 54.4C37.3 54.9 37.3 56.2 36.4 56.7L25 63.2C24.1 63.7 23 63.1 23 62L23.1 49C23.1 47.9 24.2 47.3 25.1 47.8Z" fill="white" stroke="white" stroke-width="2" stroke-miterlimit="10"/>
<path opacity="0.2" d="M68.6 78.1H9.6C4.4 78.1 0.299999 73.9 0.299999 68.8V9.8C0.299999 4.6 4.5 0.5 9.6 0.5H68.5C73.7 0.5 77.8 4.7 77.8 9.8V68.7C77.9 73.9 73.7 78.1 68.6 78.1Z" fill="white"/>
</svg>
