<svg width="360" height="640" viewBox="0 0 360 640" fill="none" xmlns="http://www.w3.org/2000/svg">
<rect width="360" height="640" fill="#02B2FD"/>
<path d="M359.8 444.8H0.200195V642.3H359.8V444.8Z" fill="#00A3FB"/>
<path d="M360 496.7H0V642.2H360V496.7Z" fill="#009AF9"/>
<path d="M360 475.1H0V484.8H360V475.1Z" fill="#009AF9"/>
<g opacity="0.3">
<g opacity="0.3">
<g opacity="0.3">
<g opacity="0.3">
<path opacity="0.3" d="M328.4 76.4H319.8H318.2C312.2 76.4 314.3 69 314.3 69C316 66 317 62.5 317 58.7C317 47.2 307.8 38 296.4 38C286.9 38 279 44.5 276.6 53.2C274.6 52 272.2 51.4 269.7 51.4C263.7 51.4 258.6 55.2 256.6 60.6C255.6 60.3 254.5 60.1 253.4 60.1C247.5 60.1 242.8 64.9 242.8 70.8C242.8 70.9 242.8 71 242.8 71.1C242.8 72.3 242.5 76.3 237.4 76.3H235.8H211.1C209.4 76.3 208 77.7 208 79.4C208 81.1 209.4 82.5 211.1 82.5H328.3C330 82.5 331.4 81.1 331.4 79.4C331.5 77.8 330.1 76.4 328.4 76.4ZM244.3 76.3C244.3 76.4 244.4 76.4 244.3 76.3V76.3Z" fill="#E5EDEF"/>
</g>
</g>
<g opacity="0.3">
<path opacity="0.3" d="M200.9 82.6H186.4C185.1 82.6 184 81.5 184 80.2V78.7C184 77.4 185.1 76.3 186.4 76.3H200.9C202.2 76.3 203.3 77.4 203.3 78.7V80.2C203.2 81.5 202.2 82.6 200.9 82.6Z" fill="#E5EDEF"/>
</g>
<g opacity="0.3">
<path opacity="0.3" d="M175.7 82.6H174.2C172.9 82.6 171.8 81.5 171.8 80.2V78.7C171.8 77.4 172.9 76.3 174.2 76.3H175.7C177 76.3 178.1 77.4 178.1 78.7V80.2C178.1 81.5 177 82.6 175.7 82.6Z" fill="#E5EDEF"/>
</g>
</g>
</g>
<g opacity="0.3">
<g opacity="0.3">
<g opacity="0.3">
<g opacity="0.3">
<path opacity="0.3" d="M143.5 218.7H137H135.8C131.2 218.7 132.8 213.1 132.8 213.1C134.1 210.8 134.8 208.1 134.8 205.3C134.8 196.6 127.8 189.5 119.2 189.5C112 189.5 106 194.4 104.1 201.1C102.6 200.2 100.8 199.7 98.8996 199.7C94.2996 199.7 90.4996 202.6 88.9996 206.7C88.1996 206.5 87.3996 206.3 86.5996 206.3C82.0996 206.3 78.4996 209.9 78.4996 214.4C78.4996 214.5 78.4996 214.6 78.4996 214.6C78.4996 215.5 78.2996 218.6 74.3996 218.6H73.1996H54.4996C53.1996 218.6 52.0996 219.7 52.0996 221C52.0996 222.3 53.1996 223.4 54.4996 223.4H143.5C144.8 223.4 145.9 222.3 145.9 221C145.8 219.8 144.8 218.7 143.5 218.7Z" fill="#E5EDEF"/>
</g>
</g>
<g opacity="0.3">
<path opacity="0.3" d="M46.0998 223.4H36.1998C34.8998 223.4 33.7998 222.3 33.7998 221C33.7998 219.7 34.8998 218.6 36.1998 218.6H46.0998C47.3998 218.6 48.4998 219.7 48.4998 221C48.4998 222.3 47.3998 223.4 46.0998 223.4Z" fill="#E5EDEF"/>
</g>
<g opacity="0.3">
<path opacity="0.3" d="M26.9996 223.4C25.6996 223.4 24.5996 222.3 24.5996 221C24.5996 219.7 25.6996 218.6 26.9996 218.6C28.2996 218.6 29.3996 219.7 29.3996 221C29.3996 222.3 28.2996 223.4 26.9996 223.4Z" fill="#E5EDEF"/>
</g>
</g>
</g>
<g opacity="0.5">
<g opacity="0.4">
<g opacity="0.4">
<path opacity="0.4" d="M320.599 243.4C320.599 245.9 318.499 248 315.999 248H259.299C256.799 248 254.699 245.9 254.699 243.4C254.699 240.9 256.799 238.8 259.299 238.8H282.899C284.099 230.8 290.999 224.6 299.399 224.6C307.799 224.6 314.699 230.8 315.899 238.8H316.099C318.499 238.8 320.599 240.9 320.599 243.4Z" fill="#E5EDEF"/>
</g>
</g>
<path opacity="0.4" d="M246.9 248H238.2C235.7 248 233.6 245.9 233.6 243.4C233.6 240.9 235.7 238.8 238.2 238.8H246.9C249.4 238.8 251.5 240.9 251.5 243.4C251.5 245.9 249.5 248 246.9 248Z" fill="#E5EDEF"/>
</g>
<path d="M140.7 344.7V325.7C140.7 319.1 135.3 313.7 128.7 313.7H113.3C111.3 313.7 109.4 314.2 107.7 315.1V344.7H140.7Z" fill="#06A7FF"/>
<path d="M321.7 374.3C314.9 362.9 302.5 355.3 288.4 355.3C287.5 355.3 286.6 355.3 285.7 355.4V374.3H321.7Z" fill="#06A7FF"/>
<path opacity="0.9" d="M49.8998 422.6V317.5C46.8998 311.7 40.8998 307.8 33.8998 307.8C23.8998 307.8 15.8998 315.9 15.8998 325.8V329.6H27.3998H30.5998H35.9998C37.2998 329.6 38.3998 330.7 38.3998 332C38.3998 333.3 37.2998 334.4 35.9998 334.4H30.5998H27.3998H15.7998V338.8H27.2998H30.4998H35.8998C37.1998 338.8 38.2998 339.9 38.2998 341.2C38.2998 342.5 37.1998 343.6 35.8998 343.6H30.4998H27.2998H15.7998V348H27.2998H30.4998H35.8998C37.1998 348 38.2998 349.1 38.2998 350.4C38.2998 351.7 37.1998 352.8 35.8998 352.8H30.4998H27.2998H15.7998V365.3C16.5998 365.2 17.3998 365.1 18.1998 365.1C28.1998 365.1 36.1998 373.2 36.1998 383.1V449.1H51.7998V446.1H49.7998V422.6H49.8998Z" fill="#06A7FF"/>
<path d="M14.6002 405.6H11.3002H0.200195V449.5H15.8002V405.6H14.6002Z" fill="#0CACFE"/>
<path d="M14.6002 400.7H15.8002V365.6C7.00019 366.8 0.200195 374.3 0.200195 383.5V400.7H11.3002H14.6002Z" fill="#0CACFE"/>
<path d="M18.3004 365.4C17.5004 365.4 16.7004 365.5 15.9004 365.6V400.7H20.4004C21.7004 400.7 22.8004 401.8 22.8004 403.1C22.8004 404.4 21.7004 405.5 20.4004 405.5H15.9004V449.4H36.4004V383.4C36.3004 373.5 28.2004 365.4 18.3004 365.4Z" fill="#0CACFE"/>
<path d="M264.4 363.7C270.4 359 277.7 356 285.7 355.4V341.4C285.7 331.4 277.6 323.4 267.7 323.4C265.1 323.4 262.6 324 260.4 325V363.7H264.4Z" fill="#06A7FF"/>
<path d="M269.3 363.7C272.9 363.7 275.8 366.6 275.8 370.2C275.8 371.8 275.2 373.2 274.3 374.3H285.6V355.4C277.6 356 270.2 359 264.3 363.7H269.3Z" fill="#06A7FF"/>
<path opacity="0.5" d="M33.1002 332C33.1002 333.3 32.0002 334.4 30.7002 334.4H36.1002C37.4002 334.4 38.5002 333.3 38.5002 332C38.5002 330.7 37.4002 329.6 36.1002 329.6H30.7002C32.0002 329.6 33.1002 330.7 33.1002 332Z" fill="#26BDF9"/>
<path opacity="0.5" d="M24.8998 332C24.8998 330.7 25.9998 329.6 27.2998 329.6H15.7998V334.5H27.2998C25.9998 334.4 24.8998 333.3 24.8998 332Z" fill="#26BDF9"/>
<path opacity="0.5" d="M33.1002 341.3C33.1002 342.6 32.0002 343.7 30.7002 343.7H36.1002C37.4002 343.7 38.5002 342.6 38.5002 341.3C38.5002 340 37.4002 338.9 36.1002 338.9H30.7002C32.0002 338.9 33.1002 340 33.1002 341.3Z" fill="#26BDF9"/>
<path opacity="0.5" d="M24.8998 341.3C24.8998 340 25.9998 338.9 27.2998 338.9H15.7998V343.8H27.2998C25.9998 343.8 24.8998 342.7 24.8998 341.3Z" fill="#26BDF9"/>
<path opacity="0.5" d="M24.8998 350.7C24.8998 349.4 25.9998 348.3 27.2998 348.3H15.7998V353.2H27.2998C25.9998 353.1 24.8998 352 24.8998 350.7Z" fill="#26BDF9"/>
<path opacity="0.5" d="M33.1002 350.7C33.1002 352 32.0002 353.1 30.7002 353.1H36.1002C37.4002 353.1 38.5002 352 38.5002 350.7C38.5002 349.4 37.4002 348.3 36.1002 348.3H30.7002C32.0002 348.2 33.1002 349.3 33.1002 350.7Z" fill="#26BDF9"/>
<path opacity="0.5" d="M15.7996 401V400.7H14.5996C14.9996 400.7 15.4996 400.8 15.7996 401Z" fill="#26BDF9"/>
<path opacity="0.5" d="M8.9002 403.1C8.9002 401.8 10.0002 400.7 11.3002 400.7H0.200195V405.6H11.3002C10.0002 405.6 8.9002 404.5 8.9002 403.1Z" fill="#26BDF9"/>
<path opacity="0.5" d="M14.5996 405.6H15.7996V405.3C15.4996 405.4 14.9996 405.6 14.5996 405.6Z" fill="#26BDF9"/>
<path opacity="0.5" d="M16.9998 403.1C16.9998 404 16.4998 404.8 15.7998 405.2V405.5H20.2998C21.5998 405.5 22.6998 404.4 22.6998 403.1C22.6998 401.8 21.5998 400.7 20.2998 400.7H15.7998V401C16.4998 401.5 16.9998 402.2 16.9998 403.1Z" fill="#26BDF9"/>
<path opacity="0.5" d="M24.9004 332C24.9004 333.3 26.0004 334.4 27.3004 334.4H30.5004C31.8004 334.4 32.9004 333.3 32.9004 332C32.9004 330.7 31.8004 329.6 30.5004 329.6H27.3004C26.0004 329.6 24.9004 330.7 24.9004 332Z" fill="#1AC6FF"/>
<path opacity="0.5" d="M24.9004 341.3C24.9004 342.6 26.0004 343.7 27.3004 343.7H30.5004C31.8004 343.7 32.9004 342.6 32.9004 341.3C32.9004 340 31.8004 338.9 30.5004 338.9H27.3004C26.0004 338.9 24.9004 340 24.9004 341.3Z" fill="#1AC6FF"/>
<path opacity="0.5" d="M24.9004 350.7C24.9004 352 26.0004 353.1 27.3004 353.1H30.5004C31.8004 353.1 32.9004 352 32.9004 350.7C32.9004 349.4 31.8004 348.3 30.5004 348.3H27.3004C26.0004 348.2 24.9004 349.3 24.9004 350.7Z" fill="#1AC6FF"/>
<path opacity="0.5" d="M15.8 401C15.4 400.8 15 400.7 14.6 400.7H11.4C10.1 400.7 9 401.8 9 403.1C9 404.4 10.1 405.5 11.4 405.5H14.6C15 405.5 15.5 405.4 15.8 405.2V401Z" fill="#1AC6FF"/>
<path opacity="0.5" d="M16.9998 403.1C16.9998 402.2 16.4998 401.4 15.7998 401V405.2C16.4998 404.8 16.9998 404 16.9998 403.1Z" fill="#1AC6FF"/>
<path d="M335 425.3C336.5 425.3 337.8 425.7 339 426.4V419.5C339 415.2 342.5 411.6 346.9 411.6C350.5 411.6 353.5 414 354.5 417.3C356 415.4 357.9 413.9 360.1 412.9V352.1C359.7 352 359.2 352 358.8 352C353.8 352 349.7 356.1 349.7 361.1V362.9H346C345.5 362.9 345.2 363.3 345.2 363.7V367.7C345.2 368.2 345.6 368.5 346 368.5H349.7V374.2H321.8C325.3 380 327.2 386.7 327.2 393.9V399.5C327.2 420.8 309.8 438.3 288.4 438.3C269.8 438.3 254.1 425 250.4 407.4H249.6V399.6V394V376.7H240.2C236.6 376.7 233.7 373.8 233.7 370.2C233.7 366.6 236.6 363.7 240.2 363.7H249.6V341.5C249.6 334.2 254 327.8 260.3 325V317.2H249.4V309.9C249.4 303.3 244.1 298 237.5 298H231.2V324.5H220.3C220.3 324.5 220.3 281.9 220.3 275.2C220.3 268.4 166.3 275.2 166.3 275.2V323H144.5V344.7H140.7V384.8C140.7 391.4 135.3 396.8 128.7 396.8H113.3C106.7 396.8 101.3 391.4 101.3 384.8V325.7C101.3 321.1 103.9 317.1 107.7 315.1V285.4C107.7 282.3 105.2 279.7 102 279.7H55.4998C52.3998 279.7 49.7998 282.2 49.7998 285.4V295.3H70.2998H73.4998H83.4998C84.7998 295.3 85.8998 296.4 85.8998 297.7C85.8998 299 84.7998 300.1 83.4998 300.1H73.4998H70.2998H49.8998V317.3C51.1998 319.8 51.8998 322.6 51.8998 325.6V446.3H53.0998H64.0998V426C64.0998 417.9 70.5998 411.4 78.6998 411.4C79.4998 411.4 80.1998 411.5 80.9998 411.6V407.9C80.9998 399.8 87.4998 393.3 95.5998 393.3C103.7 393.3 110.2 399.8 110.2 407.9V446.4H171.1V395.8C171.1 385.8 181.3 376.7 181.3 376.7V356.4C181.3 348.3 187.8 341.8 195.9 341.8C204 341.8 210.5 348.3 210.5 356.4V376.7C210.5 376.7 220.7 385.8 220.7 395.8V446.4H327.2V433C327.1 428.8 330.6 425.3 335 425.3ZM178.4 307.3C178.4 308.6 177.3 309.7 176 309.7H166.4V304.8H176C177.3 304.9 178.4 306 178.4 307.3ZM175.9 302.7H166.3V297.8H175.9C177.2 297.8 178.3 298.9 178.3 300.2C178.3 301.5 177.3 302.7 175.9 302.7Z" fill="#0CACFE"/>
<path d="M101.2 325.8V384.9C101.2 391.5 106.6 396.9 113.2 396.9H128.6C135.2 396.9 140.6 391.5 140.6 384.9V344.7H107.6V315.1C103.8 317.2 101.2 321.2 101.2 325.8Z" fill="#0CACFE"/>
<path d="M285.7 407.4H250.4C254.1 425 269.7 438.3 288.4 438.3C309.7 438.3 327.2 420.9 327.2 399.5V393.9C327.2 386.7 325.2 380 321.8 374.2H285.8V407.4H285.7Z" fill="#0CACFE"/>
<path d="M49.9004 317.5V422.6V446.5H51.9004V325.8C51.9004 322.8 51.2004 320 49.9004 317.5Z" fill="#0CACFE"/>
<path d="M249.6 407.4H250.4C249.9 404.9 249.6 402.2 249.6 399.6V407.4Z" fill="#0CACFE"/>
<path d="M249.6 341.4V363.7H260.3V325C254 327.8 249.6 334.1 249.6 341.4Z" fill="#0CACFE"/>
<path d="M249.6 376.7V394.1C249.6 387.9 251.1 382 253.7 376.7H249.6Z" fill="#0CACFE"/>
<path d="M285.7 374.3H274.4C273.2 375.8 271.4 376.7 269.4 376.7H253.8C251.2 381.9 249.7 387.8 249.7 394.1V399.7C249.7 402.4 250 405 250.5 407.5H285.8V374.3H285.7Z" fill="#0CACFE"/>
<path opacity="0.25" d="M195.8 446.5H189.4V446.6H195.8V446.5Z" fill="#11BCFD"/>
<path opacity="0.25" d="M207.2 446.5H200.7V446.6H207.2V446.5Z" fill="#11BCFD"/>
<path opacity="0.25" d="M220.6 446.5H212.1V446.6H220.6V446.5Z" fill="#11BCFD"/>
<path opacity="0.25" d="M174.2 446.5H171.1V446.6H174.2V446.5Z" fill="#11BCFD"/>
<path opacity="0.25" d="M184.5 446.5H179V446.6H184.5V446.5Z" fill="#11BCFD"/>
<path opacity="0.25" d="M203.1 376.8H188.6C178.8 377.6 171.1 385.9 171.1 395.9V446.5H174.2V418.6C174.2 417.3 175.3 416.2 176.6 416.2C177.9 416.2 179 417.3 179 418.6V446.5H184.5V418.6C184.5 417.3 185.6 416.2 186.9 416.2C188.2 416.2 189.3 417.3 189.3 418.6V446.5H195.7V418.6C195.7 417.3 196.8 416.2 198.1 416.2C199.4 416.2 200.5 417.3 200.5 418.6V446.5H207V418.6C207 417.3 208.1 416.2 209.4 416.2C210.7 416.2 211.8 417.3 211.8 418.6V446.5H220.3V395.9C220.6 385.8 212.9 377.6 203.1 376.8ZM179 410.6C179 411.9 177.9 413 176.6 413C175.3 413 174.2 411.9 174.2 410.6V404C174.2 402.7 175.3 401.6 176.6 401.6C177.9 401.6 179 402.7 179 404V410.6ZM189.4 410.6C189.4 411.9 188.3 413 187 413C185.7 413 184.6 411.9 184.6 410.6V404C184.6 402.7 185.7 401.6 187 401.6C188.3 401.6 189.4 402.7 189.4 404V410.6ZM200.7 410.6C200.7 411.9 199.6 413 198.3 413C197 413 195.9 411.9 195.9 410.6V404C195.9 402.7 197 401.6 198.3 401.6C199.6 401.6 200.7 402.7 200.7 404V410.6ZM212.1 410.6C212.1 411.9 211 413 209.7 413C208.4 413 207.3 411.9 207.3 410.6V404C207.3 402.7 208.4 401.6 209.7 401.6C211 401.6 212.1 402.7 212.1 404V410.6Z" fill="#11BCFD"/>
<path opacity="0.25" d="M360.1 446.5H354.8V446.6H360.1V446.5Z" fill="#11BCFD"/>
<path opacity="0.25" d="M354.5 417.4C354.7 418.1 354.8 418.8 354.8 419.5V446.5H360.1V412.9C357.8 413.9 355.9 415.5 354.5 417.4Z" fill="#11BCFD"/>
<path d="M78.6996 411.6C70.5996 411.6 64.0996 418.1 64.0996 426.2V446.5H80.9996V411.8C80.1996 411.6 79.4996 411.6 78.6996 411.6Z" fill="#11BCFD"/>
<path d="M351.5 446.5H342.9V446.6H351.5V446.5Z" fill="#11BCFD"/>
<path d="M351.6 423.9C351.2 423.7 350.8 423.3 350.8 422.8V419.6C350.8 418.9 351.3 418.4 352 418.4C352.5 418.4 353 418.8 353.1 419.3C353.5 418.7 353.9 418.1 354.3 417.5C353.4 414.2 350.3 411.8 346.7 411.8C342.4 411.8 338.8 415.3 338.8 419.7V426.6C341.1 428 342.6 430.5 342.6 433.4V446.8H351.2V426.5C351.4 425.4 351.5 424.6 351.6 423.9ZM342.9 422.7C342.9 423.4 342.4 423.9 341.7 423.9C341 423.9 340.5 423.4 340.5 422.7V419.5C340.5 418.8 341 418.3 341.7 418.3C342.4 418.3 342.9 418.8 342.9 419.5V422.7ZM348.1 422.7C348.1 423.4 347.6 423.9 346.9 423.9C346.2 423.9 345.7 423.4 345.7 422.7V419.5C345.7 418.8 346.2 418.3 346.9 418.3C347.6 418.3 348.1 418.8 348.1 419.5V422.7Z" fill="#11BCFD"/>
<path d="M354.7 446.5H351.4V446.6H354.7V446.5Z" fill="#11BCFD"/>
<path d="M354.5 417.4C354.1 418 353.7 418.6 353.3 419.2C353.3 419.3 353.4 419.4 353.4 419.5V422.7C353.4 423.4 352.9 423.9 352.2 423.9C352 423.9 351.9 423.9 351.7 423.8C351.6 424.6 351.5 425.4 351.5 426.2V446.5H354.8V419.5C354.8 418.8 354.6 418 354.5 417.4Z" fill="#11BCFD"/>
<path d="M339 446.5H327.1V446.6H339V446.5Z" fill="#11BCFD"/>
<path d="M339 426.4C337.8 425.7 336.4 425.3 335 425.3C330.7 425.3 327.1 428.8 327.1 433.2V446.6H339V426.4Z" fill="#11BCFD"/>
<path d="M342.8 446.5H339V446.6H342.8V446.5Z" fill="#11BCFD"/>
<path d="M339 426.4V446.5H342.8V433.1C342.9 430.3 341.3 427.7 339 426.4Z" fill="#11BCFD"/>
<path opacity="0.25" d="M81 446.5V446.6H110.2V446.5H93.3H81Z" fill="#11BCFD"/>
<path opacity="0.25" d="M95.6 393.4C87.5 393.4 81 399.9 81 408V411.7C88 412.8 93.3 418.8 93.3 426.1V446.4H110.2V407.9C110.2 400 103.7 393.4 95.6 393.4Z" fill="#11BCFD"/>
<path opacity="0.25" d="M93.3 426.2C93.3 418.9 88 412.9 81 411.8V446.5H93.3V426.2Z" fill="#11BCFD"/>
<path opacity="0.25" d="M201.4 376.7H190.2C189.6 376.7 189.1 376.7 188.5 376.8H203C202.6 376.7 202 376.7 201.4 376.7Z" fill="#11BCFD"/>
<path d="M179 446.5H174.1V446.6H179V446.5Z" fill="#0CACFE"/>
<path d="M179 418.6C179 417.3 177.9 416.2 176.6 416.2C175.3 416.2 174.2 417.3 174.2 418.6V446.5H179.1V418.6H179Z" fill="#0CACFE"/>
<path d="M189.4 446.5H184.5V446.6H189.4V446.5Z" fill="#0CACFE"/>
<path d="M189.4 418.6C189.4 417.3 188.3 416.2 187 416.2C185.7 416.2 184.6 417.3 184.6 418.6V446.5H189.5V418.6H189.4Z" fill="#0CACFE"/>
<path d="M200.7 446.5H195.8V446.6H200.7V446.5Z" fill="#0CACFE"/>
<path d="M200.7 418.6C200.7 417.3 199.6 416.2 198.3 416.2C197 416.2 195.9 417.3 195.9 418.6V446.5H200.8V418.6H200.7Z" fill="#0CACFE"/>
<path d="M212.1 446.5H207.2V446.6H212.1V446.5Z" fill="#0CACFE"/>
<path d="M212.1 418.6C212.1 417.3 211 416.2 209.7 416.2C208.4 416.2 207.3 417.3 207.3 418.6V446.5H212.2V418.6H212.1Z" fill="#0CACFE"/>
<path d="M176.6 401.6C175.3 401.6 174.2 402.7 174.2 404V410.6C174.2 411.9 175.3 413 176.6 413C177.9 413 179 411.9 179 410.6V404C179 402.7 177.9 401.6 176.6 401.6Z" fill="#0CACFE"/>
<path d="M187 401.6C185.7 401.6 184.6 402.7 184.6 404V410.6C184.6 411.9 185.7 413 187 413C188.3 413 189.4 411.9 189.4 410.6V404C189.4 402.7 188.3 401.6 187 401.6Z" fill="#0CACFE"/>
<path d="M198.3 401.6C197 401.6 195.9 402.7 195.9 404V410.6C195.9 411.9 197 413 198.3 413C199.6 413 200.7 411.9 200.7 410.6V404C200.7 402.7 199.6 401.6 198.3 401.6Z" fill="#0CACFE"/>
<path d="M209.7 401.6C208.4 401.6 207.3 402.7 207.3 404V410.6C207.3 411.9 208.4 413 209.7 413C211 413 212.1 411.9 212.1 410.6V404C212.1 402.7 211 401.6 209.7 401.6Z" fill="#0CACFE"/>
<path opacity="0.5" d="M76.1002 297.8C76.1002 299.1 75.0002 300.2 73.7002 300.2H83.7002C85.0002 300.2 86.1002 299.1 86.1002 297.8C86.1002 296.5 85.0002 295.4 83.7002 295.4H73.7002C75.0002 295.4 76.1002 296.5 76.1002 297.8Z" fill="#26BDF9"/>
<path opacity="0.5" d="M67.9004 297.8C67.9004 296.5 69.0004 295.4 70.3004 295.4H49.9004V300.3H70.4004C69.0004 300.3 67.9004 299.2 67.9004 297.8Z" fill="#26BDF9"/>
<path opacity="0.5" d="M175.9 297.8H166.3V302.7H175.9C177.2 302.7 178.3 301.6 178.3 300.3C178.3 299 177.3 297.8 175.9 297.8Z" fill="#26BDF9"/>
<path opacity="0.5" d="M175.9 304.9H166.3V309.8H175.9C177.2 309.8 178.3 308.7 178.3 307.4C178.4 306 177.3 304.9 175.9 304.9Z" fill="#26BDF9"/>
<path opacity="0.25" d="M67.9004 297.8C67.9004 299.1 69.0004 300.2 70.3004 300.2H73.5004C74.8004 300.2 75.9004 299.1 75.9004 297.8C75.9004 296.5 74.8004 295.4 73.5004 295.4H70.3004C69.0004 295.4 67.9004 296.5 67.9004 297.8Z" fill="#1AC6FF"/>
<path opacity="0.5" d="M352.1 418.3C351.4 418.3 350.9 418.8 350.9 419.5V422.7C350.9 423.2 351.2 423.6 351.7 423.8C352 422.1 352.5 420.5 353.3 419.1C353.1 418.7 352.7 418.3 352.1 418.3Z" fill="#2CCDFF"/>
<path opacity="0.5" d="M352.1 424C352.8 424 353.3 423.5 353.3 422.8V419.6C353.3 419.5 353.3 419.4 353.2 419.3C352.4 420.7 351.9 422.3 351.6 424C351.8 423.9 352 424 352.1 424Z" fill="#2CCDFF"/>
<path opacity="0.5" d="M346.9 418.3C346.2 418.3 345.7 418.8 345.7 419.5V422.7C345.7 423.4 346.2 423.9 346.9 423.9C347.6 423.9 348.1 423.4 348.1 422.7V419.5C348.1 418.8 347.6 418.3 346.9 418.3Z" fill="#2CCDFF"/>
<path opacity="0.5" d="M341.6 418.3C340.9 418.3 340.4 418.8 340.4 419.5V422.7C340.4 423.4 340.9 423.9 341.6 423.9C342.3 423.9 342.8 423.4 342.8 422.7V419.5C342.9 418.8 342.3 418.3 341.6 418.3Z" fill="#2CCDFF"/>
<path d="M264.4 363.7H260.3V367.4C261.6 366.1 262.9 364.8 264.4 363.7Z" fill="#0CACFE"/>
<path d="M260.3 367.4V374.3H274.3C275.2 373.2 275.8 371.7 275.8 370.2C275.8 366.6 272.9 363.7 269.3 363.7H264.4C262.9 364.8 261.6 366.1 260.3 367.4Z" fill="#0CACFE"/>
<path d="M240.2 363.7C236.6 363.7 233.7 366.6 233.7 370.2C233.7 373.8 236.6 376.7 240.2 376.7H249.6V363.7H240.2Z" fill="#0CACFE"/>
<path d="M260.3 367.4V363.7H249.6V376.7H253.7C255.5 373.3 257.7 370.1 260.3 367.4Z" fill="#0CACFE"/>
<path d="M260.3 367.4C257.7 370.2 255.5 373.3 253.7 376.7H269.3C271.3 376.7 273.1 375.8 274.3 374.3H260.3V367.4Z" fill="#0CACFE"/>
<path d="M359.8 442H0.200195V452.7H359.8V442Z" fill="#00A3FB"/>
<path d="M9.7 432.9H0V451.1H9.7C14.7 451.1 18.8 447 18.8 442C18.8 437 14.7 432.9 9.7 432.9Z" fill="#00A3FB"/>
</svg>
