<svg width="65" height="63" viewBox="0 0 65 63" fill="none" xmlns="http://www.w3.org/2000/svg">
<path d="M58.2186 36.9426L62.5948 34.3237L61.6192 32.6934L57.2429 35.3122L58.2186 36.9426Z" fill="#5F5F57"/>
<path d="M16.752 35.4193L17.8134 36.9984C18.0188 37.3416 18.2242 37.6848 18.4296 38.0281C25.1564 49.2691 43.008 50.4733 53.82 44.0032L61.0449 39.9128L56.064 31.5894L53.2323 33.2839C44.4797 38.5215 32.8327 40.4802 27.3883 32.5506L25.8478 29.9763L16.752 35.4193Z" fill="#5F5F57"/>
<path d="M18.4296 38.0281C18.2242 37.6849 18.0189 37.3417 17.8135 36.9984L16.752 35.4194L25.762 30.0277L26.1559 30.4912L27.3883 32.5506C27.8849 33.1858 28.3815 33.8209 28.9126 34.3188L21.1525 41.4099C20.0904 40.4139 19.1999 39.3153 18.4296 38.0281Z" fill="#A3BCD3"/>
<path opacity="0.7" d="M18.6398 34.2897L16.752 35.4194L17.8135 36.9985L18.4297 38.0282C19.1999 39.3153 20.1418 40.4997 21.2039 41.4957L23.2985 39.543C21.3107 38.1687 19.6492 36.366 18.6398 34.2897Z" fill="#97AFC1"/>
<path d="M22.7546 35.3234C29.7051 31.1641 31.8937 22.163 27.7857 15.2983L25.0128 10.6646C24.9101 10.4929 24.6358 10.424 24.4642 10.5267L17.1704 14.8914C16.9988 14.9941 16.9299 15.2684 17.0326 15.4401L19.9595 20.3312C21.3973 22.7339 20.6047 25.8885 18.202 27.3263C15.7994 28.7641 12.6447 27.9715 11.2069 25.5688L8.28001 20.6777C8.17731 20.5061 7.90301 20.4372 7.73139 20.5399L0.437597 24.9046C0.265978 25.0073 0.197061 25.2816 0.29976 25.4532C0.967302 26.5687 2.73008 29.7092 2.98683 30.1383C6.88871 37.2429 15.804 39.4827 22.7546 35.3234Z" fill="#8D82BF"/>
</svg>
