<svg width="65" height="61" viewBox="0 0 65 61" fill="none" xmlns="http://www.w3.org/2000/svg">
<path d="M14.6024 49.7693L5.37744 47.9639L4.89727 50.4173L14.1222 52.2228L14.6024 49.7693Z" fill="#5F5F57"/>
<path d="M51.1099 56.9143L41.8849 55.1089L41.4047 57.5623L50.6297 59.3678L51.1099 56.9143Z" fill="#5F5F57"/>
<path d="M15.2172 8.62134L8.9364 7.39209L7.05411 17.0096L13.3349 18.2389L15.2172 8.62134Z" fill="#5F5F57"/>
<path d="M63.7509 16.7952L57.4701 15.5659L55.5878 25.1834L61.8686 26.4127L63.7509 16.7952Z" fill="#5F5F57"/>
<path d="M48.8954 57.2958L7.77554 49.2481C4.34071 48.5759 2.05171 45.1728 2.72396 41.738L7.2568 18.5774C9.23512 8.4692 19.0921 1.83898 29.2004 3.81729L46.1782 7.1401C56.2865 9.11842 62.9167 18.9754 60.9384 29.0837L56.4055 52.2442C55.7141 55.7772 52.3303 57.9681 48.8954 57.2958Z" fill="#A3BCD3"/>
<path d="M37.3647 43.3212L24.7049 40.8435C22.644 40.4401 21.4792 38.5818 21.8634 36.6191L24.3219 24.0574C24.706 22.0946 26.5835 20.8317 28.5463 21.2159L41.108 23.6744C43.0707 24.0585 44.3336 25.936 43.9495 27.8988L41.491 40.4605C41.0087 42.404 39.2293 43.6861 37.3647 43.3212Z" fill="#5F5F57"/>
<path d="M31.1786 27.0297L29.9028 26.78L28.8657 32.0795L30.1414 32.3292L31.1786 27.0297Z" fill="#A3BCD3"/>
<path d="M37.7538 28.3166L36.478 28.0669L35.4409 33.3663L36.7167 33.616L37.7538 28.3166Z" fill="#A3BCD3"/>
<path d="M33.2624 37.7292L30.7108 37.2298L30.9605 35.954C31.095 35.2671 31.799 34.7935 32.486 34.9279C33.173 35.0624 33.6466 35.7665 33.5121 36.4534L33.2624 37.7292Z" fill="#A3BCD3"/>
<path opacity="0.7" d="M52.5826 9.82023C51.2976 21.5926 47.6395 42.8865 37.4131 55.0487L48.8953 57.296C52.3301 57.9682 55.7332 55.6792 56.4054 52.2443L60.9382 29.0838C62.4364 21.429 58.9337 13.8144 52.5826 9.82023Z" fill="#97AFC1"/>
<path d="M17.3949 18.3201C19.6713 18.7656 21.8779 17.2814 22.3234 15.0049C22.7689 12.7285 21.2847 10.522 19.0083 10.0765C16.7318 9.63094 14.5253 11.1152 14.0798 13.3916C13.6343 15.668 15.1185 17.8745 17.3949 18.3201Z" fill="#5F5F57"/>
<path d="M17.3714 17.3985C19.2142 17.7591 21.0005 16.5576 21.3612 14.7148C21.7218 12.872 20.5203 11.0857 18.6775 10.7251C16.8347 10.3644 15.0484 11.5659 14.6878 13.4087C14.3271 15.2515 15.5286 17.0378 17.3714 17.3985Z" fill="#FF4324"/>
<path d="M16.9684 14.772C17.944 14.963 18.8896 14.3268 19.0806 13.3512C19.2715 12.3756 18.6354 11.43 17.6598 11.239C16.6842 11.0481 15.7385 11.6842 15.5476 12.6598C15.3566 13.6354 15.9928 14.5811 16.9684 14.772Z" fill="#FF624D"/>
<path d="M36.8656 7.86502C41.6894 8.80911 45.7031 9.04718 45.8304 8.39677C45.9577 7.74637 42.1504 6.4538 37.3266 5.50971C32.5028 4.56563 28.4891 4.32753 28.3618 4.97793C28.2345 5.62833 32.0418 6.92093 36.8656 7.86502Z" fill="#5F5F57"/>
</svg>
