<svg width="71" height="63" viewBox="0 0 71 63" fill="none" xmlns="http://www.w3.org/2000/svg">
<path d="M69.1168 24.8596L64.3598 23.0208L63.6747 24.7929L68.4317 26.6318L69.1168 24.8596Z" fill="#5F5F57"/>
<path d="M58.1747 16.5558C46.4222 12.0128 29.0333 16.2265 24.31 28.4454C24.1658 28.8185 24.0216 29.1916 23.8773 29.5647L23.099 31.3008L32.986 35.1227L34.0677 32.3245C38.0887 23.5866 49.8992 23.5419 59.4131 27.2196L62.4911 28.4094L65.9885 19.3619L58.1747 16.5558Z" fill="#5F5F57"/>
<path d="M8.2058 20.1831L8.42214 19.6235L8.11252 20.1471L8.2058 20.1831Z" fill="#5F5F57"/>
<path d="M24.31 28.4455C24.1658 28.8186 24.0216 29.1917 23.8774 29.5648L23.099 31.3009L32.8928 35.0868L33.2024 34.5632L34.0677 32.3246C34.4494 31.6145 34.8311 30.9044 35.2701 30.3236L26.4201 24.6511C25.5422 25.8127 24.8509 27.0464 24.31 28.4455Z" fill="#A3BCD3"/>
<path opacity="0.7" d="M32.1074 28.2433C31.2805 28.9958 30.6252 30.1362 29.9848 30.9608C29.3805 31.6921 28.8334 32.5527 28.3223 33.3201L32.8927 35.0868L33.2023 34.5632L34.0677 32.3246C34.4494 31.6145 34.8311 30.9044 35.2701 30.3236L32.1074 28.2433Z" fill="#97AFC1"/>
<path d="M27.5958 29.93C20.3118 27.972 12.8021 32.145 10.0979 39.1405L8.38839 43.8402C8.31628 44.0268 8.43071 44.2854 8.61726 44.3576L16.5455 47.4223C16.7321 47.4944 16.9907 47.38 17.0629 47.1934L19.118 41.8768C20.1276 39.2651 23.1022 37.9492 25.7138 38.9587C28.3255 39.9683 29.7348 42.9789 28.6892 45.6838L26.634 51.0004C26.5619 51.187 26.6763 51.4456 26.8629 51.5178L34.7911 54.5825C34.9777 54.6546 35.2363 54.5402 35.3084 54.3536L37.2554 49.3168C40.4495 41.3314 36.1284 32.2634 27.5958 29.93Z" fill="#8D82BF"/>
</svg>
