<svg width="48" height="32" viewBox="0 0 48 32" fill="none" xmlns="http://www.w3.org/2000/svg">
<path d="M46.8571 17.4362L46.9413 15.5381L41.8463 15.3121L41.7621 17.2103L46.8571 17.4362Z" fill="#5F5F57"/>
<path d="M42.5927 21.0507L43.0092 11.6599L27.924 10.9909L27.5075 20.3817L42.5927 21.0507Z" fill="#5F5F57"/>
<path d="M30.2177 15.6974C30.5012 9.30373 25.5323 3.97836 19.2385 3.69925L8.04945 3.20304L7.03046 26.1805L18.2195 26.6767C24.6132 26.9602 29.9297 22.1911 30.2177 15.6974Z" fill="#A3BCD3"/>
<path d="M5.98715 27.1351L7.09475 2.1596L19.2828 2.70011C26.176 3.00581 31.5224 8.84841 31.2167 15.7416C30.911 22.6349 25.0684 27.9813 18.1752 27.6756L5.98715 27.1351ZM9.00418 4.24625L8.0738 25.2256L18.2638 25.6775C24.0581 25.9345 28.9617 21.4473 29.2187 15.653C29.4756 9.85872 24.9885 4.95511 19.1942 4.69815L9.00418 4.24625Z" fill="#A3BCD3"/>
<path opacity="0.7" d="M18.1752 27.6756C21.6718 27.8306 24.9351 26.4739 27.3347 24.278C18.0882 22.867 10.975 20.7497 6.35047 18.9431L5.98718 27.135L18.1752 27.6756Z" fill="#97AFC1"/>
<path d="M8.26481 25.4342L9.20405 4.25505C9.29708 2.15711 7.67851 0.283571 5.58057 0.190533L1.28478 2.59627e-05L0.00439958 28.8716L4.29577 29.1621C6.3937 29.2551 8.17177 27.5322 8.26481 25.4342Z" fill="#8D82BF"/>
</svg>
