<svg width="156" height="156" viewBox="0 0 156 156" fill="none" xmlns="http://www.w3.org/2000/svg">
<path d="M50.1932 103.023C48.7054 103.365 47.4246 104.344 46.7059 105.753L42.6744 114.488C41.7408 116.248 42.1476 118.373 43.5502 119.799L54.4203 130.848C55.7527 132.203 57.9418 132.574 59.7159 131.811L68.5161 127.923C69.0841 127.645 69.5107 127.365 69.9384 126.945C70.6513 126.243 71.0825 125.398 71.232 124.41C71.4563 122.926 71.0448 121.367 69.9227 120.227L54.354 104.401C53.2319 103.26 51.7511 102.753 50.1932 103.023Z" fill="#8D82BF"/>
<path d="M42.5961 115.407C47.4443 119.194 59.1147 127.492 69.1541 127.716C69.0115 127.856 68.7988 127.925 68.6562 128.065L59.856 131.953C58.0807 132.858 55.963 132.416 54.5604 130.991L43.7605 120.012C42.5683 118.801 42.1591 116.959 42.5961 115.407Z" fill="#827BB2"/>
<path d="M114.323 112.459L112.969 113.791L116.546 117.427L117.9 116.094L114.323 112.459Z" fill="#5F5F57"/>
<path d="M55.6321 34.6886L35.9568 54.0443L32.9412 50.9789C31.2581 49.268 31.2801 46.5811 32.991 44.898L46.5356 31.5735C48.2465 29.8904 50.9334 29.9124 52.6165 31.6233L55.6321 34.6886Z" fill="#8D82BF"/>
<path d="M57.4705 34.7036L36.013 55.8126L32.0857 51.8205C29.9117 49.6106 29.9407 46.0751 32.1506 43.9011L45.6952 30.5766C47.9051 28.4026 51.4405 28.4315 53.6145 30.6414L57.4705 34.7036ZM35.9707 52.3472L53.8638 34.7448L51.6898 32.5349C50.4976 31.323 48.5178 31.3068 47.3059 32.499L33.7613 45.8236C32.5494 47.0158 32.5332 48.9956 33.7254 50.2075L35.9707 52.3472Z" fill="#8D82BF"/>
<path d="M99.4115 111.417L107.336 119.472C107.546 119.686 107.829 119.689 108.113 119.55L110.035 118.08C113.167 115.56 116.018 112.755 118.518 109.735L120.018 107.838C120.232 107.628 120.164 107.273 119.954 107.06L112.029 99.0041C111.819 98.7902 111.395 98.7868 111.181 98.9972L99.3472 110.639C99.2046 110.779 99.2011 111.203 99.4115 111.417Z" fill="#5F5F57"/>
<path d="M115.101 43.3781L106.301 47.266C104.811 47.8902 103.811 49.1548 103.515 50.7081C103.291 52.1912 103.702 53.7503 104.824 54.8909L120.393 70.7167C121.515 71.8573 122.996 72.3644 124.554 72.0943C125.475 71.8897 126.327 71.4724 127.04 70.7711C127.396 70.4205 127.754 69.9284 128.041 69.3651L132.072 60.6297C133.006 58.8695 132.599 56.7448 131.197 55.319L120.397 44.3408C119.064 42.9863 116.875 42.6148 115.101 43.3781Z" fill="#8D82BF"/>
<path d="M115.951 43.2437C119.658 48.1533 127.764 59.958 127.824 69.9998C127.966 69.8595 128.039 69.648 128.181 69.5077L132.213 60.7723C133.146 59.0121 132.74 56.8874 131.337 55.4617L120.537 44.4834C119.345 43.2715 117.51 42.8322 115.951 43.2437Z" fill="#827BB2"/>
<path d="M132.507 85.312L85.4571 131.597C80.7521 136.226 73.1156 136.163 68.4871 131.458L42.3289 104.868C24.9368 87.1889 25.1708 58.6227 42.8501 41.2307C60.4581 23.9087 89.0955 24.0725 106.488 41.7518L132.646 68.342C137.274 73.047 137.212 80.6835 132.507 85.312Z" fill="#A3BCD3"/>
<path opacity="0.7" d="M82.69 29.1114C97.8629 50.096 115.805 78.3161 119.105 98.4963L132.507 85.312C137.212 80.6835 137.274 73.047 132.646 68.342L106.488 41.7518C99.8252 34.9795 91.4451 30.7388 82.69 29.1114Z" fill="#97AFC1"/>
<path d="M126.929 84.2057L84.0858 126.353C79.3808 130.982 71.7443 130.919 67.1158 126.214L48.3211 107.109C43.6926 102.404 43.7552 94.768 48.4601 90.1394L91.3038 47.9917C96.0088 43.3632 103.645 43.4258 108.274 48.1307L127.068 67.2357C131.697 71.9407 131.634 79.5772 126.929 84.2057Z" fill="#5F5F57"/>
<path opacity="0.5" d="M88.4389 121.51L86.3716 123.543L89.9482 127.179L92.0155 125.145L88.4389 121.51Z" fill="#5F5F57"/>
<path opacity="0.5" d="M123.94 86.5854L121.873 88.6191L125.449 92.2548L127.517 90.2211L123.94 86.5854Z" fill="#5F5F57"/>
<path opacity="0.03" d="M91.5096 48.7713L82.5274 57.6075L97.7822 111.757L126.012 83.9861C130.574 79.4978 130.635 72.1441 126.146 67.5817L107.913 49.047C103.567 44.3444 96.1433 44.2129 91.5096 48.7713Z" fill="white"/>
<path d="M86.5504 75.8139C86.1378 74.3963 85.7239 73.12 85.3101 71.8438C85.0342 70.993 85.0342 70.993 84.2547 71.1988C83.6879 71.3356 83.2625 71.4735 82.6956 71.6103C82.3415 71.6781 82.3404 71.8195 82.4795 72.1035C83.0301 73.9465 83.5807 75.7896 84.1313 77.6327C84.1991 77.9868 84.1267 78.1983 83.9128 78.4087C80.2771 81.9853 76.7128 85.4918 73.0771 89.0683C72.7207 89.419 72.7195 89.5604 73.0702 89.9169C76.9273 93.8377 80.7142 97.6872 84.5714 101.608C84.922 101.964 85.0634 101.966 85.4199 101.615C86.9169 100.142 88.4139 98.6695 89.911 97.1968C90.1225 97.2692 90.0501 97.4808 90.1202 97.5521C90.534 98.8283 90.9467 100.246 91.3605 101.522C91.4283 101.876 91.5697 101.877 91.9239 101.81C92.562 101.603 93.2001 101.396 93.9083 101.26C94.2625 101.192 94.3349 100.981 94.2671 100.627C93.7165 98.7836 93.1647 97.082 92.6141 95.239C92.4762 94.8135 92.5486 94.602 92.8337 94.3215C96.3981 90.815 100.034 87.2384 103.598 83.732C104.026 83.3112 103.886 83.1686 103.535 82.8122C102.413 81.6716 101.291 80.531 100.169 79.3904C99.9584 79.1765 99.9595 79.0351 100.173 78.8247C100.672 78.3338 101.171 77.8429 101.67 77.352C101.884 77.1416 101.885 77.0002 101.675 76.7863C100.483 75.5744 99.2907 74.3626 98.0283 73.0794C97.818 72.8655 97.7467 72.9356 97.6041 73.0759C97.1051 73.5668 96.5348 74.1279 96.0358 74.6188C95.7506 74.8993 95.6092 74.8981 95.3287 74.613C94.2066 73.4724 93.0845 72.3318 91.9625 71.1912C91.682 70.906 91.4704 70.8336 91.114 71.1842C89.5445 72.8685 88.1187 74.2711 86.5504 75.8139ZM91.2289 91.692C91.23 91.5505 91.1599 91.4792 91.0898 91.4079C89.9207 87.3677 88.6804 83.3977 87.4413 79.2862C87.3723 79.0735 87.4447 78.8619 87.5873 78.7216C88.7279 77.5996 89.8685 76.4775 91.0091 75.3554C91.223 75.1451 91.3644 75.1462 91.5748 75.36C94.0994 77.9264 96.6942 80.564 99.2189 83.1304C99.4293 83.3443 99.4281 83.4857 99.2142 83.6961C98.6439 84.2571 98.0736 84.8181 97.5033 85.3792C95.5061 87.4842 93.3675 89.5881 91.2289 91.692ZM85.1635 81.106C86.4728 85.2888 87.7108 89.5417 88.8799 93.582C89.019 93.8659 88.8764 94.0062 88.7338 94.1465C87.5932 95.2685 86.4526 96.3906 85.3833 97.4426C85.0982 97.7231 85.028 97.6518 84.7475 97.3666C82.2229 94.8003 79.6982 92.2339 77.1736 89.6676C76.893 89.3824 76.8942 89.241 77.1793 88.9605C79.1754 86.9969 81.1002 85.1034 83.0962 83.1398C83.5952 82.6489 84.3081 81.9476 85.1635 81.106Z" fill="#FCFCFC"/>
</svg>
