<svg width="29" height="47" viewBox="0 0 29 47" fill="none" xmlns="http://www.w3.org/2000/svg">
<path d="M15.5 0H13.6V5.10001H15.5V0Z" fill="#5F5F57"/>
<path d="M19.2 4.1001H9.79999V19.2001H19.2V4.1001Z" fill="#5F5F57"/>
<path d="M14.4 16.7002C8.00002 16.7002 2.90002 21.9002 2.90002 28.2002V39.4002H25.9V28.2002C25.9 21.8002 20.9 16.7002 14.4 16.7002Z" fill="#A3BCD3"/>
<path d="M26.9 40.4002H1.90002V28.2002C1.90002 21.3002 7.50002 15.7002 14.4 15.7002C21.3 15.7002 26.9 21.3002 26.9 28.2002V40.4002ZM3.90002 38.4002H24.9V28.2002C24.9 22.4002 20.2 17.7002 14.4 17.7002C8.60002 17.7002 3.90002 22.4002 3.90002 28.2002V38.4002Z" fill="#A3BCD3"/>
<path opacity="0.7" d="M26.9 28.2002C26.9 24.7002 25.4 21.5002 23.1 19.2002C22.1 28.5002 20.3 35.7002 18.7 40.4002H26.9V28.2002Z" fill="#97AFC1"/>
<path d="M25.1 38.2002H3.90001C1.80001 38.2002 0 39.9002 0 42.0002V46.3002H28.9L29 42.0002C29 39.9002 27.3 38.2002 25.1 38.2002Z" fill="#8D82BF"/>
</svg>
