<svg width="64" height="64" viewBox="0 0 64 64" fill="none" xmlns="http://www.w3.org/2000/svg">
<path d="M56.4432 39.5319L54.8309 40.7154C44.9156 47.9938 27.7124 48.2171 20.4339 38.3017C20.1972 37.9793 20.0197 37.7375 19.783 37.415L19.1913 36.6089L26.1239 31.5199L26.7157 32.326L26.7748 32.4066C33.2249 41.1933 45.7173 38.1016 54.5041 31.6515L54.6653 31.5332L59.1034 37.5791L56.4432 39.5319Z" fill="#D5D5D5"/>
<path d="M17.874 36.3353L26.4189 30.0628L28.1941 32.4811C34.3586 39.8649 45.7704 36.822 53.9929 30.7862L55.0409 30.0169L60.6625 37.675L55.5839 41.4031C45.4267 48.8591 27.5409 49.3353 19.789 38.7751C19.5523 38.4526 19.3156 38.1302 19.0789 37.8077L17.874 36.3353ZM25.9095 32.9177L20.6697 36.764C20.9064 37.0865 21.0839 37.3283 21.3206 37.6507C28.3032 47.163 45.0493 46.6551 54.3198 39.85L57.7055 37.3647L54.4509 32.931C45.2233 39.4565 32.6554 42.1075 25.9095 32.9177Z" fill="#5F5F57"/>
<path d="M10.8382 28.1027C12.7318 30.6823 16.3071 31.1591 18.8061 29.3246L19.5316 28.7921C22.1112 26.8985 22.5879 23.3232 20.7535 20.8242L17.4397 16.3099L23.4051 11.931C25.0028 14.1075 25.2395 14.43 26.2454 15.8004C30.6836 21.8463 29.3759 30.3733 23.3299 34.8114C17.284 39.2495 8.8376 37.8827 4.39949 31.8367C3.39352 30.4663 3.19455 30.3643 1.5591 27.9673L7.52443 23.5884L10.8382 28.1027Z" fill="#8D82BF"/>
<path d="M0.0806395 27.812L7.6582 22.2496L11.5637 27.57C13.1023 29.6659 16.0378 30.1161 18.1337 28.5776L18.8592 28.045C20.9552 26.5065 21.4053 23.5709 19.8668 21.475L15.9613 16.1546L23.5388 10.5922L24.1306 11.3983C25.0182 12.6075 25.4916 13.2524 25.9058 13.8167C26.2017 14.2197 26.4976 14.6228 26.971 15.2677C31.7049 21.7167 30.3707 30.8835 23.8411 35.6766C17.3115 40.4698 8.22532 39.0763 3.43217 32.5467C3.07712 32.063 2.84042 31.7406 2.60372 31.4181C2.13033 30.7732 1.71609 30.2089 0.591769 28.6773L0.0806395 27.812ZM7.31006 24.9861L2.95697 28.1816C3.66707 29.1489 4.02213 29.6326 4.37718 30.1163C4.61388 30.4388 4.85058 30.7612 5.20562 31.2449C9.28868 36.8071 17.1759 38.0882 22.8188 33.946C28.4617 29.8038 29.6622 21.9757 25.5199 16.3328C25.1057 15.7686 24.8098 15.3655 24.4548 14.8818C24.1589 14.4787 23.8039 13.9951 23.2713 13.2696L18.9182 16.465L21.6403 20.1732C23.8297 23.1558 23.1866 27.3494 20.204 29.5389L19.4784 30.0715C16.4958 32.2609 12.3022 31.6178 10.1127 28.6352L7.31006 24.9861Z" fill="#5F5F57"/>
<path d="M30.1864 34.8031L29.1083 33.7603L22.3642 40.7324L23.4424 41.7753L30.1864 34.8031Z" fill="#5F5F57"/>
<path d="M34.0482 37.4297L32.6686 36.8408L29.4103 44.4744L30.7899 45.0633L34.0482 37.4297Z" fill="#5F5F57"/>
<path d="M39.848 38.2503L38.3578 38.0791L37.4674 45.8281L38.9576 45.9993L39.848 38.2503Z" fill="#5F5F57"/>
<path d="M44.4394 36.7637L42.9877 37.1409L45.0497 45.0771L46.5015 44.6999L44.4394 36.7637Z" fill="#5F5F57"/>
<path d="M49.3481 34.8682L47.9864 35.4973L51.3417 42.7599L52.7034 42.1307L49.3481 34.8682Z" fill="#5F5F57"/>
<path d="M57.9036 35.6067L61.9342 32.6479L60.514 30.7133L56.4834 33.672L57.9036 35.6067Z" fill="#5F5F57"/>
</svg>
