<svg width="29" height="46" viewBox="0 0 29 46" fill="none" xmlns="http://www.w3.org/2000/svg">
<path d="M17.6 4.69995H10.2V17.8H17.6V4.69995Z" fill="#D5D5D5"/>
<path d="M18.7 18.8H9.29999V3.69995H18.7V18.8ZM11.2 16.8H16.6V5.69995H11.2V16.8Z" fill="#5F5F57"/>
<path d="M13.9 16.3C7.50002 16.3 2.40002 21.5 2.40002 27.8V39H25.4V27.8C25.4 21.4 20.4 16.3 13.9 16.3Z" fill="#A3BCD3"/>
<path d="M26.4 40H1.40002V27.8C1.40002 20.9 7.00002 15.3 13.9 15.3C20.8 15.3 26.4 20.9 26.4 27.8V40ZM3.40002 38H24.4V27.8C24.4 22 19.7 17.3 13.9 17.3C8.10002 17.3 3.40002 22 3.40002 27.8V38Z" fill="#5F5F57"/>
<path d="M24.5 38.8H3.60001C2.10001 38.8 0.799988 40 0.799988 41.6V44.9001H27.2V41.6C27.4 40 26.2 38.8 24.5 38.8Z" fill="#8D82BF"/>
<path d="M28.4 45.9001H0V41.6C0 39.5 1.69999 37.8 3.79999 37.8H24.7C26.8 37.8 28.5 39.5 28.5 41.6L28.4 45.9001ZM1.89999 43.9001H26.3V41.6C26.3 40.6 25.5 39.8 24.5 39.8H3.60001C2.60001 39.8 1.79999 40.6 1.79999 41.6L1.89999 43.9001Z" fill="#5F5F57"/>
<path d="M18.1 8.30005H10.7V9.80005H18.1V8.30005Z" fill="#5F5F57"/>
<path d="M18.1 12.5H10.7V14H18.1V12.5Z" fill="#5F5F57"/>
<g opacity="0.5">
<path opacity="0.5" d="M24.4 27C24.4 27.3 24.4 37.8 24.4 37.8H17.1V17.8C17.2 17.8 23.9 19.7 24.4 27Z" fill="#97AFC1"/>
</g>
<path d="M15.1 0H12.7V5H15.1V0Z" fill="#5F5F57"/>
</svg>
